<svg width="289" height="112" viewBox="0 0 289 112" fill="none" xmlns="http://www.w3.org/2000/svg">
<path id="404" d="M0.410547 92.5V71.8L47.8105 4H76.4606V70.3H88.7605V92.5H76.4606V112H50.8105V92.5H0.410547ZM52.6105 32.2L27.4105 70.3H52.6105V32.2ZM101.324 55.75C101.324 38.55 104.624 25 111.224 15.1C117.924 5.19999 128.674 0.24999 143.474 0.24999C158.274 0.24999 168.974 5.19999 175.574 15.1C182.274 25 185.624 38.55 185.624 55.75C185.624 73.15 182.274 86.8 175.574 96.7C168.974 106.6 158.274 111.55 143.474 111.55C128.674 111.55 117.924 106.6 111.224 96.7C104.624 86.8 101.324 73.15 101.324 55.75ZM160.424 55.75C160.424 45.65 159.324 37.9 157.124 32.5C154.924 27 150.374 24.25 143.474 24.25C136.574 24.25 132.024 27 129.824 32.5C127.624 37.9 126.524 45.65 126.524 55.75C126.524 62.55 126.924 68.2 127.724 72.7C128.524 77.1 130.124 80.7 132.524 83.5C135.024 86.2 138.674 87.55 143.474 87.55C148.274 87.55 151.874 86.2 154.274 83.5C156.774 80.7 158.424 77.1 159.224 72.7C160.024 68.2 160.424 62.55 160.424 55.75ZM199.776 92.5V71.8L247.176 4H275.826V70.3H288.126V92.5H275.826V112H250.176V92.5H199.776ZM251.976 32.2L226.776 70.3H251.976V32.2Z" fill="#FF4C00"/>
</svg>
