<svg width="24" height="24" viewBox="0 0 24 24" fill="none" xmlns="http://www.w3.org/2000/svg">
<g id="icn_library">
<g id="icn_library_2">
<g id="open-book,book,reading,book-open,">
<path id="Union" fill-rule="evenodd" clip-rule="evenodd" d="M20.9939 19.9645C20.0343 19.7353 18.4268 19.5704 16.8031 19.8382C15.1838 20.1053 13.6525 20.7827 12.6675 22.1318C12.6418 22.169 12.6128 22.2044 12.5808 22.2374C12.5122 22.3086 12.4334 22.365 12.3488 22.406C12.2376 22.4601 12.1183 22.4865 11.9997 22.4864C11.8813 22.4864 11.7622 22.4601 11.6512 22.406C11.5666 22.365 11.4878 22.3086 11.4192 22.2374C11.3872 22.2044 11.3583 22.169 11.3325 22.1318C10.3475 20.7828 8.81618 20.1053 7.19693 19.8382C5.57315 19.5704 3.9657 19.7353 3.00609 19.9645C2.56414 20.0701 2.1232 19.7849 2.02121 19.3274C1.91923 18.87 2.19482 18.4136 2.63676 18.3081C3.7705 18.0373 5.59294 17.8522 7.45541 18.1594C9.03173 18.4194 10.712 19.0464 12 20.3508C13.288 19.0464 14.9683 18.4194 16.5446 18.1594C18.4071 17.8522 20.2295 18.0373 21.3632 18.3081C21.8052 18.4136 22.0808 18.87 21.9788 19.3274C21.8768 19.7849 21.4359 20.0701 20.9939 19.9645Z" fill="#C1C1C1"/>
</g>
</g>
<path id="Subtract" fill-rule="evenodd" clip-rule="evenodd" d="M11.35 4.46936C9.40997 3.48979 7.24316 3 4.99538 3C4.29646 3 3.49769 3.08629 2.79877 3.17257C2.39938 3.17257 2 3.60401 2 3.94915V14.3035C2 14.8213 2.39938 15.1664 2.99846 15.1664H3.19815C3.79723 15.0801 4.3963 14.9938 4.99538 14.9938C7.29184 14.9938 9.48845 15.5978 11.3855 16.8059C11.6851 17.0647 12.1843 17.0647 12.5837 16.8059C14.98 15.339 17.9754 14.735 20.771 15.1664C21.2703 15.2527 21.8694 14.9075 21.9692 14.4761V14.3035V3.94915C21.9692 3.60401 21.5698 3.17257 21.1704 3.17257C20.4715 3.08629 19.7726 3 18.9738 3C16.7379 3 14.5822 3.48462 12.65 4.45386L12.65 13C12.65 13.359 12.359 13.65 12 13.65C11.641 13.65 11.35 13.359 11.35 13V4.46936Z" fill="#C1C1C1"/>
</g>
</svg>
