<svg width="32" height="32" viewBox="0 0 32 32" fill="none" xmlns="http://www.w3.org/2000/svg">
<g id="delete">
<path id="coolicon" d="M16.0003 29.3333C12.4631 29.3365 9.0699 27.9327 6.56873 25.4315C4.06755 22.9304 2.66382 19.5371 2.667 15.9999V15.7333C2.77605 10.3896 6.06406 5.6268 11.0221 3.63068C15.9802 1.63455 21.6511 2.79045 25.4323 6.56793C29.2489 10.3814 30.3912 16.119 28.3261 21.1034C26.261 26.0878 21.3956 29.3364 16.0003 29.3333ZM16.0003 17.8799L19.4537 21.3333L21.3337 19.4533L17.8803 15.9999L21.3337 12.5466L19.4537 10.6666L16.0003 14.1199L12.547 10.6666L10.667 12.5466L14.1203 15.9999L10.667 19.4533L12.547 21.3333L16.0003 17.8813V17.8799Z" fill="#DFDFDF"/>
</g>
</svg>
