<svg width="28" height="28" viewBox="0 0 28 28" fill="none" xmlns="http://www.w3.org/2000/svg">
<path id="coolicon" d="M13.9998 27.3333C10.4627 27.3365 7.06941 25.9327 4.56824 23.4315C2.06706 20.9304 0.663327 17.5371 0.666509 13.9999V13.7333C0.77556 8.38956 4.06357 3.6268 9.02166 1.63068C13.9797 -0.365451 19.6506 0.790452 23.4318 4.56793C27.2485 8.38137 28.3907 14.119 26.3256 19.1034C24.2605 24.0878 19.3951 27.3364 13.9998 27.3333ZM13.9998 15.8799L17.4532 19.3333L19.3332 17.4533L15.8798 13.9999L19.3332 10.5466L17.4532 8.6666L13.9998 12.1199L10.5465 8.6666L8.66651 10.5466L12.1198 13.9999L8.66651 17.4533L10.5465 19.3333L13.9998 15.8813V15.8799Z" fill="#DFDFDF"/>
</svg>
