<svg width="28" height="28" viewBox="0 0 28 28" fill="none" xmlns="http://www.w3.org/2000/svg">
<g id="boxdelete">
<path id="box-delete" d="M14 24.0012C11.3471 24.0036 8.80218 22.9508 6.9263 21.0749C5.05042 19.199 3.99762 16.6541 4 14.0012V13.8012C4.08179 9.79339 6.5478 6.22132 10.2664 4.72423C13.9849 3.22713 18.2381 4.09406 21.074 6.92717C23.9365 9.78725 24.7932 14.0905 23.2443 17.8288C21.6955 21.5671 18.0465 24.0035 14 24.0012ZM14 15.4112L16.59 18.0012L18 16.5912L15.41 14.0012L18 11.4112L16.59 10.0012L14 12.5912L11.41 10.0012L10 11.4112L12.59 14.0012L10 16.5912L11.41 18.0012L14 15.4122V15.4112Z" fill="#DFDFDF"/>
</g>
</svg>
