<svg width="34" height="34" viewBox="0 0 34 34" fill="none" xmlns="http://www.w3.org/2000/svg">
<g id="Group 1982">
<rect id="Rectangle 4020" width="34" height="34" rx="8" fill="white"/>
<g id="Iconography - Caesarzkn">
<g id="Group">
<g id="Layer_37">
<path id="Shape" fill-rule="evenodd" clip-rule="evenodd" d="M22.25 9.5H11.75C10.5074 9.5 9.5 10.5074 9.5 11.75V13.25C9.5 13.6642 9.83579 14 10.25 14H11V22.25C11 23.4926 12.0074 24.5 13.25 24.5H20.75C21.9926 24.5 23 23.4926 23 22.25V14H23.75C24.1642 14 24.5 13.6642 24.5 13.25V11.75C24.5 10.5074 23.4926 9.5 22.25 9.5ZM15.5 20.75C15.5 21.1642 15.1642 21.5 14.75 21.5C14.3358 21.5 14 21.1642 14 20.75V16.25C14 15.8358 14.3358 15.5 14.75 15.5C15.1642 15.5 15.5 15.8358 15.5 16.25V20.75ZM19.25 21.5C19.6642 21.5 20 21.1642 20 20.75V16.25C20 15.8358 19.6642 15.5 19.25 15.5C18.8358 15.5 18.5 15.8358 18.5 16.25V20.75C18.5 21.1642 18.8358 21.5 19.25 21.5Z" fill="#6F6F6F"/>
</g>
</g>
</g>
</g>
</svg>
