<svg width="48" height="48" viewBox="0 0 48 48" fill="none" xmlns="http://www.w3.org/2000/svg">
<g id="btn-delete">
<rect id="Rectangle 4068" width="48" height="48" rx="17" fill="#6F6F6F"/>
<g id="Group 2252">
<path id="Vector" d="M25.334 13.334L25.334 19.1673" stroke="#F7F7F7" stroke-width="2" stroke-linecap="round" stroke-linejoin="round"/>
<path id="Vector_2" d="M22 13.334L22 19.1673" stroke="#F7F7F7" stroke-width="2" stroke-linecap="round" stroke-linejoin="round"/>
<path id="Vector_3" d="M18.667 10V9C18.1147 9 17.667 9.44772 17.667 10H18.667ZM28.667 10H29.667C29.667 9.44772 29.2193 9 28.667 9V10ZM18.667 11H28.667V9H18.667V11ZM27.667 10V21.6667H29.667V10H27.667ZM27.8337 21.5H19.5003V23.5H27.8337V21.5ZM19.667 21.6667V10H17.667V21.6667H19.667ZM19.5003 21.5C19.5924 21.5 19.667 21.5746 19.667 21.6667H17.667C17.667 22.6792 18.4878 23.5 19.5003 23.5V21.5ZM27.667 21.6667C27.667 21.5746 27.7416 21.5 27.8337 21.5V23.5C28.8462 23.5 29.667 22.6792 29.667 21.6667H27.667Z" fill="#F7F7F7"/>
<path id="Vector_4" d="M17 10H30.3333" stroke="#F7F7F7" stroke-width="2" stroke-linecap="round" stroke-linejoin="round"/>
<path id="Vector_5" d="M27.0007 10V11C27.5529 11 28.0007 10.5523 28.0007 10H27.0007ZM20.334 10H19.334C19.334 10.5523 19.7817 11 20.334 11V10ZM21.1673 8.5H26.1673V6.5H21.1673V8.5ZM26.0007 8.33333V10H28.0007V8.33333H26.0007ZM27.0007 9H20.334V11H27.0007V9ZM21.334 10V8.33333H19.334V10H21.334ZM26.1673 8.5C26.0753 8.5 26.0007 8.42538 26.0007 8.33333H28.0007C28.0007 7.32081 27.1798 6.5 26.1673 6.5V8.5ZM21.1673 6.5C20.1548 6.5 19.334 7.32081 19.334 8.33333H21.334C21.334 8.42538 21.2594 8.5 21.1673 8.5V6.5Z" fill="#F7F7F7"/>
</g>
<path id="&#236;&#130;&#173;&#236;&#160;&#156;" d="M18.0312 30.1719V29.0352H16.9297V30.0781C16.9238 31.6016 15.9746 32.9668 14.3281 33.5234L14.9023 34.4023C16.1445 33.9688 17.041 33.0781 17.498 31.9355C17.9551 32.9844 18.8281 33.8164 20.0117 34.2148L20.5859 33.3477C18.998 32.8203 18.0312 31.5371 18.0312 30.1719ZM15.6992 36.2422H21.5234V38.9961H22.6367V35.3398H15.6992V36.2422ZM21.5234 34.8594H22.6367V32.1406H24.1602V31.2031H22.6367V28.4961H21.5234V34.8594ZM32.7695 28.4961H31.7031V38.9961H32.7695V28.4961ZM23.6055 36.1016L24.2852 36.9336C25.3105 36.2949 26.0254 35.123 26.4004 33.752C26.7695 35.0176 27.4551 36.0898 28.457 36.6875L29.125 35.8672C27.6484 35.0176 26.9219 33.2188 26.9219 31.4258V30.582H28.7266V29.6797H23.9219V30.582H25.8555V31.4258C25.8496 33.2949 25.0938 35.2051 23.6055 36.1016ZM27.9531 33.125H29.582V38.4688H30.6367V28.7188H29.582V32.2109H27.9531V33.125Z" fill="#F7F7F7"/>
</g>
</svg>
