<svg width="42" height="42" viewBox="0 0 42 42" fill="none" xmlns="http://www.w3.org/2000/svg">
<g id="icon-detail">
<path d="M0 21C0 9.40202 9.40202 0 21 0V0C32.598 0 42 9.40202 42 21V21C42 32.598 32.598 42 21 42V42C9.40202 42 0 32.598 0 21V21Z" fill="white"/>
<ellipse id="Ellipse 1352" cx="21" cy="11" rx="7" ry="1" fill="#FF4C00"/>
<path id="Vector" d="M29.7184 22.6368C27.1832 21.9503 23.0693 19.9703 21.3752 14.2744C21.352 14.1954 21.3029 14.1258 21.2353 14.0763C21.1677 14.0268 21.0853 14 21.0006 14C20.9159 14 20.8335 14.0268 20.7659 14.0763C20.6983 14.1258 20.6492 14.1954 20.626 14.2744C18.9328 19.9703 14.818 21.9503 12.2837 22.6368C12.2021 22.659 12.1302 22.7065 12.0789 22.772C12.0277 22.8376 12 22.9175 12 22.9998C12 23.082 12.0277 23.162 12.0789 23.2275C12.1302 23.293 12.2021 23.3405 12.2837 23.3627C14.818 24.0492 18.9328 26.0292 20.626 31.7252C20.6492 31.8042 20.6983 31.8737 20.7659 31.9233C20.8335 31.9728 20.9159 31.9996 21.0006 31.9996C21.0853 31.9996 21.1677 31.9728 21.2353 31.9233C21.3029 31.8737 21.352 31.8042 21.3752 31.7252C23.0693 26.0292 27.1832 24.0492 29.7184 23.3627C29.8 23.3405 29.8719 23.293 29.9231 23.2275C29.9744 23.162 30.0021 23.082 30.0021 22.9998C30.0021 22.9175 29.9744 22.8376 29.9231 22.772C29.8719 22.7065 29.8 22.659 29.7184 22.6368Z" fill="#FF4C00"/>
</g>
</svg>
