<svg width="48" height="48" viewBox="0 0 48 48" fill="none" xmlns="http://www.w3.org/2000/svg">
<g id="Group 1923">
<circle id="Ellipse 692" cx="24" cy="24" r="24" fill="white"/>
<circle id="Ellipse 693" cx="24" cy="24" r="20" fill="#FF4C00"/>
<g id="icn_edit">
<path id="coolicon" d="M16.42 32.579C16.1395 32.5785 15.8721 32.4603 15.683 32.253C15.4904 32.0475 15.3948 31.7695 15.42 31.489L15.665 28.795L26.983 17.481L30.52 21.017L19.205 32.33L16.511 32.575C16.48 32.578 16.449 32.579 16.42 32.579ZM31.226 20.31L27.69 16.774L29.811 14.653C29.9986 14.4653 30.2531 14.3597 30.5185 14.3597C30.7839 14.3597 31.0384 14.4653 31.226 14.653L33.347 16.774C33.5348 16.9616 33.6403 17.2161 33.6403 17.4815C33.6403 17.7469 33.5348 18.0015 33.347 18.189L31.227 20.309L31.226 20.31Z" fill="white"/>
</g>
</g>
</svg>
