<svg width="93" height="32" viewBox="0 0 93 32" fill="none" xmlns="http://www.w3.org/2000/svg">
<g id="btn-guide">
<path d="M0 8C0 3.58172 3.58172 0 8 0H85C89.4183 0 93 3.58172 93 8V24C93 28.4183 89.4183 32 85 32H8C3.58172 32 0 28.4183 0 24V8Z" fill="#FFF1EB"/>
<g id="basic / check">
<path id="coolicon" d="M14.9375 20.2142L10.8125 16.0892L11.9908 14.9109L14.9388 17.8555L14.9375 17.8567L22.0083 10.7859L23.1867 11.9642L16.1158 19.0359L14.9383 20.2134L14.9375 20.2142Z" fill="#FF4C00"/>
</g>
<path id="Step Up" d="M38.4219 12.5312H39.7969C39.7422 10.8125 38.1641 9.53125 35.9688 9.53125C33.7734 9.53125 32.0703 10.7891 32.0781 12.7031C32.0703 14.2344 33.1797 15.1406 34.9531 15.6562L36.3438 16.0312C37.5312 16.3672 38.5781 16.7891 38.5781 17.8906C38.5781 19.125 37.4062 19.9297 35.8438 19.9219C34.5 19.9297 33.3203 19.3281 33.2031 18.0625H31.7656C31.8984 19.9375 33.4062 21.1953 35.8438 21.2031C38.4688 21.1953 39.9531 19.7656 39.9531 17.9219C39.9531 15.8047 37.9609 15.1094 36.75 14.7969L35.625 14.4844C34.7656 14.2734 33.4453 13.8281 33.4375 12.6406C33.4453 11.5625 34.4219 10.7812 35.9219 10.7812C37.2734 10.7812 38.3047 11.4219 38.4219 12.5312ZM44.5 12.5156H42.7188V10.4844H41.3594V12.5156H40.0781V13.6406H41.3594V18.9062C41.3672 20.4062 42.5547 21.1094 43.6875 21.1094C44.0859 21.1094 44.4141 21.0781 44.625 21.0469V19.7969C44.4297 19.8047 44.0703 19.8281 43.8281 19.8281C43.2578 19.8281 42.7109 19.6484 42.7188 18.5625V13.6406H44.5V12.5156ZM48.7031 21.1719C50.4531 21.1797 51.7109 20.3047 52.1094 19.0156H50.6719C50.3594 19.5391 49.7188 19.9844 48.7031 19.9844C47.1953 19.9844 46.1484 19 46.0781 17.2031H52.2344V16.6406C52.2422 13.5 50.3594 12.4062 48.5781 12.4062C46.2734 12.4062 44.7344 14.2188 44.7344 16.8281C44.7344 19.4297 46.25 21.1797 48.7031 21.1719ZM46.0859 16.0625C46.1797 14.75 47.1094 13.5938 48.5781 13.5938C49.9766 13.5938 50.8672 14.6484 50.875 16.0625H46.0859ZM52.9844 24.1875H54.3281V19.7031H54.4375C54.7266 20.1719 55.2891 21.1797 56.9062 21.1719C59.0234 21.1797 60.5 19.4766 60.5 16.7812C60.5 14.0938 59.0234 12.4062 56.8906 12.4062C55.2422 12.4062 54.7266 13.4062 54.4375 13.8594H54.2812V12.5156H52.9844V24.1875ZM54.2969 16.75C54.3047 14.8672 55.1328 13.6094 56.7188 13.6094C58.3516 13.6094 59.1562 14.9766 59.1562 16.75C59.1562 18.5547 58.3281 19.9688 56.7188 19.9688C55.1562 19.9688 54.3047 18.6562 54.2969 16.75ZM71.8438 9.6875V17.0625C71.8359 18.7031 70.7109 19.8828 68.8438 19.8906C66.9766 19.8828 65.8359 18.7031 65.8438 17.0625V9.6875H64.4375V17.1719C64.4375 19.5 66.1719 21.1953 68.8438 21.2031C71.5078 21.1953 73.25 19.5 73.25 17.1719V9.6875H71.8438ZM74.5781 24.1875H75.9219V19.7031H76.0312C76.3203 20.1719 76.8828 21.1797 78.5 21.1719C80.6172 21.1797 82.0938 19.4766 82.0938 16.7812C82.0938 14.0938 80.6172 12.4062 78.4844 12.4062C76.8359 12.4062 76.3203 13.4062 76.0312 13.8594H75.875V12.5156H74.5781V24.1875ZM75.8906 16.75C75.8984 14.8672 76.7266 13.6094 78.3125 13.6094C79.9453 13.6094 80.75 14.9766 80.75 16.75C80.75 18.5547 79.9219 19.9688 78.3125 19.9688C76.75 19.9688 75.8984 18.6562 75.8906 16.75Z" fill="#FF4C00"/>
</g>
</svg>
