<svg width="153" height="26" viewBox="0 0 153 26" fill="none" xmlns="http://www.w3.org/2000/svg">
<g id="Group 2119">
<g id="Group">
<path id="Vector" d="M5.34018 10.131H0.94043L6.01761 15.1618V11.6578V10.131H5.34018Z" fill="#F3F3F3"/>
<path id="Vector_2" d="M9.37126 15.2123H6.06396L8.9445 18.0928L11.0948 20.2437V15.2123H9.37126Z" fill="#F3F3F3"/>
<path id="Vector_3" d="M23.7945 15.3736V15.2121H23.7399C23.2533 13.8356 22.3821 12.641 21.255 11.7569C20.5811 11.228 19.8162 10.8106 18.9873 10.5318C19.0367 10.4009 19.083 10.2682 19.1247 10.1332C19.3331 9.4587 19.4458 8.74194 19.4458 7.99935C19.4458 6.94975 19.2198 5.95357 18.8171 5.05425C18.2495 3.78686 17.3272 2.71378 16.1761 1.96062C15.0531 1.22567 13.7135 0.794793 12.2735 0.786574H12.341C12.3052 0.785987 12.3774 0.785987 12.341 0.785987C12.3182 0.785987 12.2941 0.786574 12.2706 0.786574C12.2583 0.786574 12.2454 0.785987 12.233 0.785987C12.2213 0.785987 12.2096 0.786574 12.1978 0.786574L11.0966 0.7854H6.01937H6.01761H0.94043V5.05366V5.86434V10.0862V10.1326H0.986805H5.34018H6.01761V11.6595V15.164V15.2121V20.2911V25.37H11.0966H16.1755H16.2236H16.5559C18.3293 25.37 19.96 24.7624 21.2544 23.7463C22.3809 22.8617 23.2527 21.6676 23.7393 20.2911H23.7939V20.1291C24.0399 19.3806 24.1743 18.5817 24.1743 17.751C24.1749 16.9204 24.0405 16.122 23.7945 15.3736ZM11.2744 0.85056C11.2151 0.858192 11.1558 0.865823 11.0971 0.875215C11.1535 0.86641 11.2134 0.858192 11.2744 0.85056ZM6.01937 5.86434H11.0966H12.2324C13.4112 5.86434 14.3663 6.82002 14.3663 7.99818C14.3663 9.17693 13.4106 10.132 12.2324 10.132H11.0966H6.01937V5.86434ZM16.1761 20.2911H11.1453L11.0971 20.2429L8.94628 18.0921L6.06575 15.2115H9.37246H11.0966H16.1755H16.5559C17.4693 15.2115 18.2677 15.6953 18.715 16.4191C18.9545 16.8065 19.0954 17.262 19.0954 17.751C19.0954 18.24 18.9545 18.6955 18.715 19.083C18.2677 19.8068 17.4693 20.2905 16.5559 20.2905H16.1761V20.2911Z" fill="white"/>
</g>
<path id="Vector_4" d="M41.5644 16.6865C41.5644 21.1361 37.943 24.7575 33.4934 24.7575C29.0437 24.7575 25.4224 21.1356 25.4224 16.6865C25.4224 12.2374 29.0437 8.61548 33.4934 8.61548C37.943 8.61548 41.5644 12.2374 41.5644 16.6865ZM36.3217 16.6865C36.3217 14.9618 35.0455 13.5823 33.4934 13.5823C31.9413 13.5823 30.6651 14.9618 30.6651 16.6865C30.6651 18.4112 31.9413 19.7907 33.4934 19.7907C35.0455 19.7907 36.3217 18.4112 36.3217 16.6865Z" fill="white"/>
<path id="Vector_5" d="M58.5566 16.6865C58.5566 21.1361 54.9352 24.7575 50.4856 24.7575C46.0359 24.7575 42.4146 21.1356 42.4146 16.6865C42.4146 12.2374 46.0359 8.61548 50.4856 8.61548C54.9352 8.61548 58.5566 12.2374 58.5566 16.6865ZM53.3138 16.6865C53.3138 14.9618 52.0377 13.5823 50.4856 13.5823C48.9335 13.5823 47.6573 14.9618 47.6573 16.6865C47.6573 18.4112 48.9335 19.7907 50.4856 19.7907C52.0377 19.7907 53.3138 18.4112 53.3138 16.6865Z" fill="white"/>
<path id="Vector_6" d="M75.6969 8.96007L69.1845 16.4423L75.6276 24.4094H69.0805L64.7507 18.8327V24.4094H59.7627V4.38773L64.7507 0.785156V14.0866L69.1152 8.96007H75.6969Z" fill="white"/>
<path id="Vector_7" d="M89.8792 19.5212C89.8792 21.9937 88.5531 24.7886 82.4621 24.7886C79.7747 24.7886 76.8367 23.6063 75.5464 22.3876L77.9473 18.7328C79.1654 19.736 80.6705 20.238 82.3189 20.238C83.3937 20.238 84.7198 20.0231 84.7915 19.4496C84.8631 18.9119 83.6808 18.3747 82.3547 18.1241C78.3412 17.3357 76.2631 16.0102 76.2631 13.3228C76.2631 10.4205 78.7357 8.16284 82.9282 8.16284C84.8631 8.16284 88.124 8.37769 89.7007 9.91863L87.3356 13.466C86.3682 12.7135 85.2575 12.5344 84.1105 12.5344C83.4654 12.5344 81.6021 12.606 81.6021 13.3228C81.6021 14.0037 83.716 14.3618 84.1821 14.4693C89.5205 15.9022 89.8792 18.1957 89.8792 19.5212Z" fill="white"/>
<path id="Vector_8" d="M99.9868 19.4199H100.541V24.4078H99.0863C95.0335 24.4078 92.6431 23.542 92.6431 18.6925V13.8431H90.6689V8.92445H92.6431V6.95029L97.6311 3.27844V8.92445H102.203L100.229 13.8431H97.6311V18.173C97.6311 19.4545 98.4282 19.4199 99.9868 19.4199Z" fill="white"/>
<path id="Vector_9" d="M113.132 9.72043H117.881V24.4272H113.132V23.6687C112.044 24.3943 110.725 24.79 109.373 24.79C105.35 24.79 102.085 21.3277 102.085 17.0741C102.085 12.8205 105.35 9.39111 109.373 9.39111C110.725 9.39111 112.044 9.78677 113.132 10.5123V9.72043ZM113.099 15.4915C112.506 14.4031 111.45 13.7439 110.263 13.7439C108.516 13.7439 107.065 15.2279 107.065 17.0741C107.065 18.9203 108.516 20.4378 110.263 20.4378C111.45 20.4378 112.506 19.7451 113.099 18.6902V15.4915Z" fill="white"/>
<path id="Vector_10" d="M119.705 4.94186C119.705 3.45257 121.021 2.27441 122.684 2.27441C124.347 2.27441 125.663 3.45199 125.663 4.94186C125.663 6.43114 124.347 7.6093 122.684 7.6093C121.021 7.6093 119.705 6.43114 119.705 4.94186ZM125.213 24.4094H120.225V8.92541H125.213V24.4094Z" fill="white"/>
<path id="Vector_11" d="M136.435 8.75098C137.543 8.75098 138.687 9.13196 139.726 9.85928L137.89 13.9814C137.128 13.3926 136.436 13.1501 135.604 13.2194C132.902 13.4965 132.59 16.1986 132.59 17.6878V24.4081H127.602V8.92415H132.59V10.9335C133.421 9.30513 135.015 8.75098 136.435 8.75098Z" fill="white"/>
<path id="Vector_12" d="M152.881 19.7005C152.881 22.0909 151.599 24.7924 145.71 24.7924C143.112 24.7924 140.272 23.6494 139.024 22.4713L141.346 18.938C142.523 19.9077 143.978 20.3926 145.572 20.3926C146.611 20.3926 147.893 20.1848 147.962 19.6306C148.031 19.1111 146.888 18.5916 145.606 18.3492C141.726 17.5872 139.718 16.3051 139.718 13.7076C139.718 10.9016 142.108 8.7196 146.161 8.7196C148.031 8.7196 151.183 8.92741 152.708 10.4167L150.422 13.8461C149.486 13.1188 148.412 12.9456 147.304 12.9456C146.68 12.9456 144.879 13.0149 144.879 13.7076C144.879 14.3656 146.922 14.712 147.373 14.8159C152.534 16.2018 152.881 18.419 152.881 19.7005Z" fill="white"/>
</g>
</svg>
