<svg width="125" height="20" viewBox="0 0 125 20" fill="none" xmlns="http://www.w3.org/2000/svg">
<g id="Group 2119">
<g id="Group">
<path id="Vector" d="M3.60218 7.23792H0L4.15681 11.1341V8.42041V7.23792H3.60218Z" fill="#F53000"/>
<path id="Vector_2" d="M6.90308 11.1731H4.19531L6.55367 13.404L8.31415 15.0697V11.1731H6.90308Z" fill="#F53000"/>
<path id="Vector_3" d="M18.7112 11.2981V11.173H18.6665C18.268 10.1069 17.5548 9.18175 16.632 8.49708C16.0803 8.08745 15.4541 7.76421 14.7754 7.54826C14.8158 7.44688 14.8538 7.34413 14.8879 7.23956C15.0585 6.71719 15.1508 6.16209 15.1508 5.58698C15.1508 4.77409 14.9658 4.00258 14.6361 3.30609C14.1713 2.32453 13.4163 1.49347 12.4738 0.910174C11.5544 0.340974 10.4576 0.00727412 9.27868 0.000909264H9.33395C9.30464 0.000454632 9.36375 0.000454632 9.33395 0.000454632C9.31521 0.000454632 9.2955 0.000909264 9.27628 0.000909264C9.26619 0.000909264 9.25561 0.000454632 9.24552 0.000454632C9.23591 0.000454632 9.2263 0.000909264 9.21668 0.000909264L8.31506 0H4.15825H4.15681H0V3.30563V3.93348V7.20319V7.23911H0.0379683H3.60218H4.15681V8.42161V11.1358V11.173V15.1065V19.04H8.31506H12.4733H12.5127H12.7847C14.2367 19.04 15.5718 18.5695 16.6316 17.7825C17.5538 17.0974 18.2676 16.1726 18.666 15.1065H18.7107V14.981C18.9121 14.4014 19.0221 13.7826 19.0221 13.1393C19.0226 12.496 18.9125 11.8777 18.7112 11.2981ZM8.46068 0.0504642C8.41214 0.0563744 8.3636 0.0622846 8.31554 0.0695587C8.36168 0.0627393 8.4107 0.0563744 8.46068 0.0504642ZM4.15825 3.93348H8.31506H9.24504C10.2101 3.93348 10.9921 4.67362 10.9921 5.58607C10.9921 6.49897 10.2096 7.23866 9.24504 7.23866H8.31506H4.15825V3.93348ZM12.4738 15.1065H8.35495L8.31554 15.0692L6.55458 13.4035L4.19622 11.1726H6.9035H8.31506H12.4733H12.7847C13.5326 11.1726 14.1862 11.5472 14.5524 12.1078C14.7485 12.4078 14.8639 12.7606 14.8639 13.1393C14.8639 13.518 14.7485 13.8708 14.5524 14.1709C14.1862 14.7315 13.5326 15.1061 12.7847 15.1061H12.4738V15.1065Z" fill="#FF4C00"/>
</g>
<path id="Vector_4" d="M33.2637 12.316C33.2637 15.7622 30.2988 18.5668 26.6558 18.5668C23.0127 18.5668 20.0479 15.7617 20.0479 12.316C20.0479 8.87039 23.0127 6.06531 26.6558 6.06531C30.2988 6.06531 33.2637 8.87039 33.2637 12.316ZM28.9714 12.316C28.9714 10.9803 27.9265 9.91195 26.6558 9.91195C25.385 9.91195 24.3402 10.9803 24.3402 12.316C24.3402 13.6518 25.385 14.7201 26.6558 14.7201C27.9265 14.7201 28.9714 13.6518 28.9714 12.316Z" fill="#FF4C00"/>
<path id="Vector_5" d="M47.1734 12.316C47.1734 15.7622 44.2085 18.5668 40.5654 18.5668C36.9224 18.5668 33.9575 15.7617 33.9575 12.316C33.9575 8.87039 36.9224 6.06531 40.5654 6.06531C44.2085 6.06531 47.1734 8.87039 47.1734 12.316ZM42.881 12.316C42.881 10.9803 41.8362 9.91195 40.5654 9.91195C39.2947 9.91195 38.2499 10.9803 38.2499 12.316C38.2499 13.6518 39.2947 14.7201 40.5654 14.7201C41.8362 14.7201 42.881 13.6518 42.881 12.316Z" fill="#FF4C00"/>
<path id="Vector_6" d="M61.2054 6.33133L55.8735 12.1261L61.1487 18.2963H55.7884L52.2434 13.9773V18.2963H48.1597V2.7902L52.2434 0.00012207V10.3016L55.8168 6.33133H61.2054Z" fill="#FF4C00"/>
<path id="Vector_7" d="M72.8161 14.5113C72.8161 16.4262 71.7304 18.5907 66.7436 18.5907C64.5434 18.5907 62.1379 17.6751 61.0815 16.7312L63.0472 13.9007C64.0445 14.6777 65.2768 15.0664 66.6264 15.0664C67.5064 15.0664 68.5921 14.9 68.6507 14.4558C68.7093 14.0394 67.7414 13.6234 66.6557 13.4293C63.3697 12.8187 61.6684 11.7921 61.6684 9.71082C61.6684 7.46312 63.6927 5.7146 67.1252 5.7146C68.7093 5.7146 71.3791 5.88099 72.67 7.0744L70.7337 9.82175C69.9416 9.23891 69.0323 9.10025 68.0932 9.10025C67.565 9.10025 66.0395 9.15571 66.0395 9.71082C66.0395 10.2382 67.7702 10.5155 68.1518 10.5987C72.5225 11.7085 72.8161 13.4847 72.8161 14.5113Z" fill="#FF4C00"/>
<path id="Vector_8" d="M81.0907 14.4319H81.5443V18.2949H80.3534C77.0353 18.2949 75.0782 17.6244 75.0782 13.8686V10.1129H73.4619V6.30356H75.0782V4.77463L79.162 1.93091V6.30356H82.9054L81.2891 10.1129H79.162V13.4663C79.162 14.4588 79.8146 14.4319 81.0907 14.4319Z" fill="#FF4C00"/>
<path id="Vector_9" d="M91.8532 6.92033H95.7409V18.3102H91.8532V17.7229C90.9622 18.2848 89.8822 18.5912 88.7754 18.5912C85.4818 18.5912 82.8091 15.9098 82.8091 12.6155C82.8091 9.32124 85.4818 6.66528 88.7754 6.66528C89.8822 6.66528 90.9622 6.97171 91.8532 7.53363V6.92033ZM91.8263 11.3898C91.3404 10.5469 90.4763 10.0364 89.5045 10.0364C88.0737 10.0364 86.8856 11.1857 86.8856 12.6155C86.8856 14.0453 88.0737 15.2206 89.5045 15.2206C90.4763 15.2206 91.3404 14.6841 91.8263 13.8671V11.3898Z" fill="#FF4C00"/>
<path id="Vector_10" d="M97.2344 3.2199C97.2344 2.0665 98.3119 1.15405 99.6735 1.15405C101.035 1.15405 102.113 2.06605 102.113 3.2199C102.113 4.3733 101.035 5.28575 99.6735 5.28575C98.3119 5.28575 97.2344 4.3733 97.2344 3.2199ZM101.743 18.2969H97.6597V6.30504H101.743V18.2969Z" fill="#FF4C00"/>
<path id="Vector_11" d="M110.936 6.16919C111.843 6.16919 112.779 6.46425 113.63 7.02754L112.127 10.22C111.503 9.76397 110.936 9.5762 110.255 9.62985C108.043 9.84444 107.788 11.9371 107.788 13.0905V18.2951H103.704V6.30331H107.788V7.85951C108.468 6.59836 109.773 6.16919 110.936 6.16919Z" fill="#FF4C00"/>
<path id="Vector_12" d="M124.396 14.6501C124.396 16.5014 123.347 18.5936 118.525 18.5936C116.398 18.5936 114.073 17.7084 113.052 16.796L114.952 14.0595C115.916 14.8106 117.108 15.1861 118.412 15.1861C119.263 15.1861 120.312 15.0252 120.369 14.596C120.426 14.1937 119.49 13.7913 118.44 13.6035C115.264 13.0134 113.619 12.0205 113.619 10.0088C113.619 7.83562 115.576 6.14575 118.895 6.14575C120.426 6.14575 123.007 6.30669 124.255 7.46009L122.383 10.1161C121.617 9.55277 120.738 9.41865 119.83 9.41865C119.32 9.41865 117.845 9.4723 117.845 10.0088C117.845 10.5184 119.518 10.7866 119.887 10.8671C124.113 11.9405 124.396 13.6576 124.396 14.6501Z" fill="#FF4C00"/>
</g>
</svg>
