<svg width="270" height="162" viewBox="0 0 270 162" fill="none" xmlns="http://www.w3.org/2000/svg">
<g id="Group 2346">
<path id="Vector" d="M216.647 108.448C230.798 108.448 244.368 114.055 254.374 124.034C264.379 134.014 270 147.549 270 161.663L270 161.768L216.647 161.768L216.647 108.448Z" fill="#6F6F6F"/>
<path id="Vector_2" d="M2.32608e-06 107.712C1.70921e-06 93.5997 5.62036 80.0651 15.6248 70.0855C25.6292 60.1058 39.1987 54.4985 53.3476 54.4976L53.4578 54.4976L53.4578 107.712L2.32608e-06 107.712Z" fill="#555555"/>
<path id="Vector_3" d="M0 107.074C6.16876e-07 121.186 5.62036 134.721 15.6248 144.7C25.6292 154.68 39.1987 160.287 53.3476 160.288C53.3845 160.291 53.4209 160.291 53.4578 160.288L53.4578 107.074L0 107.074Z" fill="#636C79"/>
<path id="Vector_4" d="M160.999 54.4976C160.999 68.61 166.619 82.1446 176.623 92.1243C186.628 102.104 200.197 107.711 214.346 107.712C214.383 107.715 214.42 107.715 214.456 107.712L214.456 54.4976L160.999 54.4976Z" fill="#636C79"/>
<path id="Vector_5" d="M40.9033 52.2346C54.6003 55.7733 69.1455 53.7411 81.3403 46.5837C93.5346 39.4269 102.379 27.7314 105.929 14.0702L105.957 13.9698L54.3109 0.620605L40.9033 52.2346Z" fill="#FE5F33"/>
<path id="Vector_6" d="M94.5542 106.132C101.336 107.886 108.398 108.289 115.336 107.321C122.274 106.352 128.953 104.029 134.992 100.486C141.03 96.9424 146.309 92.2475 150.528 86.6684C154.747 81.0898 157.823 74.7368 159.58 67.9719L159.608 67.8668L107.962 54.5176L94.5542 106.132Z" fill="#FFAD8A"/>
<path id="Vector_7" d="M161.46 162C154.433 161.961 147.484 160.541 141.008 157.822C134.532 155.103 128.656 151.138 123.717 146.154C118.778 141.169 114.871 135.263 112.22 128.773C109.57 122.282 108.228 115.335 108.27 108.326L108.27 108.221L161.761 108.541L161.46 162Z" fill="#FF7A2C"/>
<path id="Vector_8" d="M160.819 161.992C167.846 162.034 174.812 160.695 181.319 158.052C187.826 155.408 193.747 151.512 198.744 146.585C203.742 141.658 207.717 135.798 210.443 129.338C213.169 122.879 214.592 115.948 214.632 108.94L214.632 108.834L161.136 108.514L160.819 161.992Z" fill="#FF7A2C"/>
<path id="Vector_9" d="M216.647 1.86768C230.798 1.86768 244.368 7.47452 254.374 17.4541C264.379 27.4338 270 40.9694 270 55.0828L270 55.1879L216.647 55.1879L216.647 1.86768Z" fill="#3D3D3D"/>
<path id="Vector_10" d="M198.486 26.598C198.486 41.2878 186.547 53.196 171.819 53.196C157.091 53.196 145.152 41.2878 145.152 26.598C145.152 11.9082 157.091 -5.21866e-07 171.819 -1.16564e-06C186.547 -1.80941e-06 198.486 11.9082 198.486 26.598Z" fill="#FF7A2C"/>
<path id="Vector_11" d="M269.989 81.1019C269.989 95.7917 258.05 107.7 243.322 107.7C228.594 107.7 216.655 95.7917 216.655 81.1019C216.655 66.4121 228.594 54.5039 243.322 54.5039C258.05 54.5039 269.989 66.4121 269.989 81.1019Z" fill="#FF7A2C"/>
<path id="Vector_12" d="M109.248 135.265C109.248 149.955 97.3089 161.863 82.5812 161.863C67.8539 161.863 55.9146 149.955 55.9146 135.265C55.9146 120.576 67.8539 108.667 82.5812 108.667C97.3089 108.667 109.248 120.576 109.248 135.265Z" fill="#FF7A2C"/>
</g>
</svg>
