<svg width="280" height="228" viewBox="0 0 280 228" fill="none" xmlns="http://www.w3.org/2000/svg">
<g id="booknote 2">
<g id="Group" filter="url(#filter0_d_1051_21236)">
<path id="Vector" d="M267.979 7.5553H12.0169C11.0335 7.5553 10.2363 8.35124 10.2363 9.33308V213.333C10.2363 214.315 11.0335 215.111 12.0169 215.111H267.979C268.962 215.111 269.759 214.315 269.759 213.333V9.33308C269.759 8.35124 268.962 7.5553 267.979 7.5553Z" fill="white"/>
<path id="Vector_2" d="M267.983 7.77737H12.0214C11.1609 7.77737 10.4634 8.47382 10.4634 9.33293V213.333C10.4634 214.192 11.1609 214.888 12.0214 214.888H267.983C268.844 214.888 269.541 214.192 269.541 213.333V9.33293C269.541 8.47382 268.844 7.77737 267.983 7.77737Z" stroke="#EFEFEF" stroke-width="0.445151"/>
</g>
<path id="Vector_3" d="M197.204 29.3331H37.3949C36.4115 29.3331 35.6143 30.1291 35.6143 31.1109V66.222C35.6143 67.2038 36.4115 67.9998 37.3949 67.9998H197.204C198.187 67.9998 198.985 67.2038 198.985 66.222V31.1109C198.985 30.1291 198.187 29.3331 197.204 29.3331Z" fill="#F3F2F3"/>
<path id="Vector_4" d="M65.879 37.7779H50.7438C48.777 37.7779 47.1826 39.3697 47.1826 41.3334V56.4445C47.1826 58.4082 48.777 60.0001 50.7438 60.0001H65.879C67.8458 60.0001 69.4402 58.4082 69.4402 56.4445V41.3334C69.4402 39.3697 67.8458 37.7779 65.879 37.7779Z" fill="#FDF4DD"/>
<path id="Vector_5" d="M57.1182 51.4618V51.6338H59.1837V51.4618C59.1917 50.368 59.583 49.8605 60.4671 49.3369C61.4922 48.7196 62.1573 47.9071 62.1573 46.6182C62.1573 44.6885 60.6157 43.5556 58.4327 43.5556C56.4295 43.5556 54.7941 44.6102 54.7549 46.8053H56.9771C57.0082 45.8916 57.6893 45.4071 58.4171 45.3991C59.1761 45.4071 59.7864 45.9151 59.7784 46.696C59.7864 47.4151 59.262 47.8991 58.589 48.3369C57.6501 48.9227 57.1258 49.5165 57.1182 51.4618ZM56.8831 53.8525C56.8676 54.5791 57.4623 55.1649 58.1977 55.1649C58.8943 55.1649 59.4966 54.5791 59.4966 53.8525C59.4966 53.1338 58.8943 52.5476 58.1977 52.5556C57.4623 52.5476 56.8676 53.1338 56.8831 53.8525Z" fill="#F0AD4C"/>
<path id="Vector_6" d="M80.1703 47.6703H79.4215V44.8569H78.9163V47.4271H78.192V42.2865H78.9163V44.237H79.4215V42.1407H80.1703V47.6703ZM75.3257 45.9991C75.8772 45.6751 76.2881 45.3063 76.5579 44.8934C76.8299 44.48 76.9923 43.996 77.0449 43.441H75.6057V42.8212H77.8025C77.8007 43.364 77.7366 43.8583 77.6111 44.3039C77.4873 44.7476 77.2763 45.1574 76.9781 45.5343C76.6816 45.9089 76.281 46.2423 75.7757 46.5338L75.3257 45.9991ZM84.9712 46.1205H84.1922V42.1467H84.9712V46.1205ZM80.4187 43.8907C80.4187 43.6253 80.4859 43.3863 80.6194 43.1736C80.7534 42.961 80.935 42.7959 81.1643 42.6784C81.3953 42.5589 81.6522 42.4991 81.934 42.4991C82.214 42.4991 82.4699 42.5589 82.701 42.6784C82.9324 42.7959 83.1149 42.961 83.2489 43.1736C83.3825 43.3863 83.4497 43.6253 83.4497 43.8907C83.4497 44.16 83.3825 44.4021 83.2489 44.6169C83.1149 44.8294 82.9324 44.9956 82.701 45.1151C82.4699 45.2347 82.214 45.2943 81.934 45.2943C81.6522 45.2943 81.3953 45.2347 81.1643 45.1151C80.9328 44.9956 80.7503 44.8294 80.6163 44.6169C80.4845 44.4021 80.4187 44.16 80.4187 43.8907ZM81.1794 43.8907C81.1776 44.0405 81.2088 44.1712 81.2738 44.2826C81.3388 44.3919 81.4278 44.476 81.5418 44.5347C81.6571 44.5916 81.7879 44.62 81.934 44.62C82.076 44.62 82.2028 44.5916 82.3146 44.5347C82.4281 44.476 82.5175 44.3919 82.5825 44.2826C82.6493 44.1712 82.6827 44.0405 82.6827 43.8907C82.6827 43.7448 82.6493 43.6172 82.5825 43.5079C82.5175 43.3985 82.4281 43.3154 82.3146 43.2587C82.201 43.2 82.0742 43.1716 81.934 43.1736C81.7879 43.1716 81.6571 43.2 81.5418 43.2587C81.4278 43.3154 81.3388 43.3985 81.2738 43.5079C81.2088 43.6172 81.1776 43.7448 81.1794 43.8907ZM81.2587 45.7196H82.0439V46.9534H85.1172V47.5729H81.2587V45.7196ZM89.205 42.5721C89.2033 42.7969 89.2772 43.0177 89.4272 43.2344C89.5794 43.4491 89.8016 43.6355 90.094 43.7935C90.386 43.9494 90.735 44.0527 91.1406 44.1033L90.8361 44.7294C90.3616 44.6605 89.9489 44.5227 89.5977 44.316C89.2487 44.1074 88.982 43.8502 88.7973 43.5443C88.6108 43.8502 88.3432 44.1074 87.9942 44.316C87.647 44.5227 87.2393 44.6605 86.771 44.7294L86.4602 44.1033C86.8622 44.0527 87.2081 43.9494 87.4979 43.7935C87.7904 43.6355 88.0112 43.4491 88.1616 43.2344C88.3116 43.0177 88.3878 42.7969 88.3895 42.5721V42.3047H89.205V42.5721ZM86.2657 45.1485H91.3173V45.7805H89.1628V47.6703H88.3958V45.7805H86.2657V45.1485ZM95.8017 42.9853H94.274C94.3047 43.1433 94.3906 43.2942 94.5326 43.438C94.6746 43.5798 94.8727 43.7033 95.126 43.8086C95.3797 43.9139 95.682 43.9859 96.0328 44.0243L95.747 44.632C95.2395 44.5751 94.8135 44.4485 94.469 44.2522C94.124 44.0557 93.8765 43.8096 93.7264 43.5139C93.576 43.8076 93.3285 44.0537 92.9839 44.2522C92.6389 44.4485 92.2152 44.5751 91.7117 44.632L91.4317 44.0243C91.7807 43.9859 92.0821 43.9139 92.3358 43.8086C92.5891 43.7033 92.7858 43.5798 92.9261 43.438C93.0658 43.2942 93.1522 43.1433 93.1847 42.9853H91.6694V42.3776H95.8017V42.9853ZM91.2007 44.8934H96.2705V45.5129H94.1827V46.4671H93.4157V45.5129H91.2007V44.8934ZM91.7972 45.9747H92.57V46.9534H95.7105V47.5729H91.7972V45.9747ZM100.949 47.6703H100.207V42.1407H100.949V47.6703ZM96.1966 44.5347C96.1966 44.1276 96.2451 43.7732 96.3426 43.4714C96.4419 43.1696 96.5817 42.9387 96.7624 42.7787C96.9449 42.6167 97.1581 42.5356 97.4016 42.5356C97.6224 42.5356 97.8183 42.6015 97.9888 42.7331C98.161 42.8647 98.2999 43.0551 98.4054 43.3043C98.5132 43.5514 98.5813 43.8461 98.6093 44.1884H99.0629V42.2196H99.7934V47.4151H99.0629V44.8023H98.6155C98.5933 45.1605 98.5292 45.4716 98.4237 45.7347C98.3182 45.996 98.1775 46.1965 98.0008 46.3365C97.8263 46.476 97.6264 46.5463 97.4016 46.5463C97.1581 46.5463 96.9449 46.4649 96.7624 46.3031C96.5817 46.1387 96.4419 45.9058 96.3426 45.604C96.2451 45.3005 96.1966 44.944 96.1966 44.5347ZM96.9146 44.5347C96.9124 44.9538 96.9529 45.2711 97.0362 45.4858C97.1216 45.6983 97.2431 45.8027 97.4016 45.7987C97.5619 45.8027 97.6856 45.6996 97.7729 45.4889C97.8619 45.2783 97.9064 44.9671 97.9064 44.556C97.9064 44.1287 97.8628 43.8066 97.7755 43.5899C97.6883 43.3731 97.5637 43.2648 97.4016 43.2648C97.2431 43.2648 97.1216 43.3721 97.0362 43.5868C96.9529 43.8015 96.9124 44.1175 96.9146 44.5347ZM103.182 43.3924C103.184 43.7489 103.234 44.0891 103.331 44.4132C103.429 44.7374 103.578 45.0249 103.779 45.276C103.981 45.5254 104.231 45.7134 104.527 45.8414L104.053 46.4609C103.752 46.3151 103.497 46.1116 103.286 45.8503C103.077 45.5871 102.913 45.2791 102.793 44.9267C102.669 45.3036 102.499 45.6325 102.281 45.9143C102.065 46.1938 101.803 46.4085 101.497 46.5583L101.01 45.9263C101.314 45.7885 101.57 45.588 101.777 45.3245C101.985 45.0614 102.141 44.7636 102.242 44.4315C102.343 44.0973 102.395 43.7509 102.397 43.3924V42.566H103.182V43.3924ZM103.907 43.8785H104.996V42.1407H105.763V47.6823H104.996V44.5045H103.907V43.8785ZM107.825 42.5113C108.115 42.5113 108.377 42.5691 108.61 42.6845C108.843 42.7999 109.026 42.961 109.158 43.1676C109.292 43.3721 109.359 43.6051 109.359 43.8663C109.359 44.1276 109.292 44.3616 109.158 44.568C109.026 44.7747 108.843 44.9369 108.61 45.0543C108.377 45.1698 108.115 45.2276 107.825 45.2276C107.537 45.2276 107.276 45.1698 107.04 45.0543C106.805 44.9369 106.62 44.7747 106.486 44.568C106.352 44.3616 106.286 44.1276 106.286 43.8663C106.286 43.6071 106.352 43.3742 106.486 43.1676C106.62 42.961 106.805 42.7999 107.04 42.6845C107.276 42.5691 107.537 42.5113 107.825 42.5113ZM106.282 45.92C106.891 45.92 107.472 45.908 108.026 45.8836C108.582 45.8596 109.105 45.8129 109.596 45.744L109.657 46.3031C109.113 46.4085 108.561 46.476 107.998 46.5067C107.438 46.5369 106.821 46.552 106.145 46.552L106.054 45.92H106.282ZM107.058 43.8663C107.058 44.0081 107.091 44.1317 107.156 44.237C107.223 44.3403 107.314 44.4193 107.43 44.4738C107.547 44.5285 107.679 44.5551 107.825 44.5529C107.973 44.5551 108.106 44.5285 108.224 44.4738C108.341 44.4193 108.434 44.3403 108.501 44.237C108.57 44.1317 108.604 44.0081 108.604 43.8663C108.604 43.7266 108.57 43.6051 108.501 43.5018C108.434 43.3964 108.341 43.3164 108.224 43.2618C108.106 43.2071 107.973 43.1797 107.825 43.1797C107.679 43.1797 107.547 43.2071 107.43 43.2618C107.314 43.3164 107.223 43.3964 107.156 43.5018C107.091 43.6051 107.058 43.7266 107.058 43.8663ZM109.913 42.1407H110.685V47.6823H109.913V42.1407ZM111.895 42.7119H112.893L113.635 45.7867H113.672L114.482 42.7119H115.339L116.149 45.7925H116.186L116.928 42.7119H117.926L116.666 47.1111H115.772L114.932 44.2066H114.895L114.049 47.1111H113.155L111.895 42.7119ZM118.832 47.1111H117.932V42.7119H118.808V44.3889H118.844C118.922 44.1924 119.043 44.0405 119.21 43.9332C119.378 43.8238 119.585 43.7691 119.83 43.7691C120.059 43.7691 120.26 43.8187 120.433 43.918C120.605 44.0172 120.738 44.16 120.831 44.3464C120.927 44.5329 120.975 44.7534 120.975 45.0089V47.1111H120.074V45.1667C120.074 44.9623 120.021 44.8031 119.916 44.6898C119.812 44.5743 119.666 44.5165 119.477 44.5165C119.284 44.5165 119.128 44.5774 119.009 44.6987C118.891 44.8205 118.832 44.9885 118.832 45.2031V47.1111ZM121.631 48.3507C121.405 48.3467 121.254 48.3405 121.174 48.3325V47.6338C121.278 47.6418 121.4 47.6458 121.539 47.6458C121.611 47.6458 121.67 47.6396 121.719 47.6276C121.768 47.6156 121.813 47.5871 121.856 47.5427C121.899 47.5 121.937 47.4334 121.972 47.3423L122.026 47.2023L120.84 43.8117H121.783L122.477 46.2423H122.513L123.213 43.8117H124.169L122.879 47.4756C122.779 47.7574 122.629 47.9729 122.428 48.1227C122.229 48.2729 121.964 48.3489 121.631 48.3507ZM125.902 43.046H127.034V42.3898H127.813V44.8023H125.129V42.3898H125.902V43.046ZM125.683 45.1605H129.359V46.6614H126.455V47.02H129.517V47.6338H125.695V46.1085H128.585V45.7623H125.683V45.1605ZM127.034 44.1945V43.6294H125.902V44.1945H127.034ZM128.58 42.1407H129.359V43.2162H130.107V43.842H129.359V44.9538H128.58V42.1407ZM134.567 46.224H133.8V45.0694H132.534V44.4498H133.8V43.8299H132.614C132.417 44.2512 132.122 44.6147 131.728 44.9205C131.335 45.2263 130.859 45.4623 130.301 45.6285L129.978 45.0271C130.568 44.8405 131.041 44.5885 131.396 44.2704C131.753 43.9504 131.966 43.5868 132.035 43.1797H130.276V42.5599H132.887C132.887 42.7767 132.865 42.9934 132.821 43.2101H133.8V42.1467H134.567V46.224ZM130.921 45.8169H131.713V46.9534H134.713V47.5729H130.921V45.8169ZM138.418 45.5254C138.801 45.5254 139.133 45.5676 139.413 45.6529C139.693 45.7378 139.908 45.8605 140.058 46.0205C140.21 46.1805 140.286 46.372 140.286 46.5947C140.286 46.8196 140.21 47.0129 140.058 47.1751C139.908 47.3391 139.693 47.4636 139.413 47.5485C139.133 47.6338 138.801 47.676 138.418 47.676C138.028 47.676 137.69 47.6338 137.405 47.5485C137.118 47.4636 136.899 47.3391 136.747 47.1751C136.595 47.0129 136.519 46.8196 136.519 46.5947C136.519 46.372 136.595 46.1805 136.747 46.0205C136.902 45.8605 137.121 45.7378 137.405 45.6529C137.69 45.5676 138.028 45.5254 138.418 45.5254ZM136.002 42.487H136.775V43.1858H137.907V42.487H138.686V45.0876H136.002V42.487ZM137.907 44.4738V43.7874H136.775V44.4738H137.907ZM137.298 46.5947C137.296 46.7525 137.39 46.872 137.581 46.9534C137.774 47.0343 138.053 47.0747 138.418 47.0747C138.777 47.0747 139.05 47.0343 139.236 46.9534C139.425 46.872 139.52 46.7525 139.52 46.5947C139.52 46.2867 139.152 46.1307 138.418 46.1267C137.665 46.1307 137.292 46.2867 137.298 46.5947ZM139.452 42.1407H140.231V43.4228H140.98V44.073H140.231V45.4036H139.452V42.1407ZM141.795 43.1311H142.884V42.4202H143.651V43.4046H144.674V42.1407H145.446V45.1667H144.674V44.0365H143.651V45.0089H141.016V42.4202H141.795V43.1311ZM141.752 45.3978H142.519V45.908H144.674V45.3978H145.446V47.5974H141.752V45.3978ZM142.884 44.3889V43.7266H141.795V44.3889H142.884ZM144.674 46.9774V46.5036H142.519V46.9774H144.674ZM146.687 45.7258C146.687 45.4827 146.708 45.2863 146.751 45.1365C146.796 44.9845 146.857 44.864 146.937 44.7747C147.016 44.6836 147.123 44.5956 147.259 44.5103C147.407 44.4132 147.522 44.315 147.603 44.2158C147.684 44.1165 147.724 44.0021 147.722 43.8724C147.722 43.7732 147.698 43.6861 147.652 43.6111C147.605 43.5342 147.541 43.4755 147.46 43.4349C147.381 43.3924 147.291 43.3701 147.192 43.3681C147.095 43.3701 147.005 43.3924 146.922 43.4349C146.838 43.4775 146.77 43.5403 146.718 43.6233C146.665 43.7043 146.636 43.8015 146.632 43.915H145.768C145.772 43.6395 145.838 43.4076 145.966 43.2192C146.094 43.0288 146.264 42.8871 146.477 42.7939C146.692 42.6987 146.933 42.6511 147.198 42.6511C147.482 42.6511 147.733 42.6987 147.95 42.7939C148.169 42.8891 148.339 43.0268 148.461 43.2071C148.585 43.3853 148.647 43.597 148.647 43.842C148.647 44.0811 148.59 44.2856 148.476 44.4556C148.365 44.624 148.203 44.7716 147.989 44.8991C147.87 44.9703 147.774 45.0423 147.704 45.1151C147.632 45.188 147.579 45.2729 147.542 45.3703C147.508 45.4676 147.49 45.5858 147.49 45.7258V45.7925H146.687V45.7258ZM146.596 46.6556C146.594 46.5645 146.615 46.48 146.66 46.4031C146.707 46.324 146.769 46.2623 146.849 46.2178C146.927 46.1734 147.014 46.1511 147.107 46.1511C147.196 46.1511 147.279 46.1734 147.356 46.2178C147.433 46.2623 147.495 46.324 147.542 46.4031C147.589 46.48 147.612 46.5645 147.612 46.6556C147.612 46.7485 147.589 46.8347 147.542 46.9138C147.495 46.9907 147.433 47.0525 147.356 47.0991C147.279 47.1436 147.196 47.1658 147.107 47.1658C147.014 47.1658 146.927 47.1436 146.849 47.0991C146.769 47.0525 146.707 46.9907 146.66 46.9138C146.615 46.8347 146.594 46.7485 146.596 46.6556Z" fill="#242424"/>
<path id="Vector_7" d="M77.8397 53.0114H75.4395V53.3838H75.8793V55.4322C75.6879 55.4345 75.504 55.4367 75.334 55.4367L75.3865 55.814C76.1375 55.8118 77.1489 55.7971 78.0454 55.6469L78.0214 55.3176C77.8206 55.3416 77.6127 55.3607 77.3999 55.3771V53.3838H77.8397V53.0114ZM76.3191 55.4251V53.3838H76.9601V55.4034C76.7447 55.4131 76.5297 55.4202 76.3191 55.4251ZM78.2702 56.85H78.7247V54.63H79.4129V54.2576H78.7247V52.5722H78.2702V56.85ZM82.65 54.8496H80.1251V54.2291H82.5161V53.8709H80.1251V53.2931H82.6069V52.9256H79.6662V55.2127H82.65V54.8496ZM79.1734 56.3105H83.0947V55.938H79.1734V56.3105ZM86.5371 52.5722H86.083V53.9522H84.8064V54.3242H86.083V56.8598H86.5371V52.5722ZM83.19 55.8282H83.5341C84.2063 55.8309 84.8277 55.7927 85.5186 55.6518L85.4612 55.2794C84.8371 55.4034 84.261 55.4416 83.649 55.4514V53.0451H83.19V55.8282ZM90.6637 54.5345H86.7423V54.8829H90.6637V54.5345ZM87.2062 55.5087H89.7311V55.8238H87.2111V56.7976H90.3147V56.4776H87.6656V56.1242H90.1807V55.1838H87.2062V55.5087ZM87.2351 53.002H89.7168V53.3074H87.2444V54.2527H90.243V53.9331H87.694V53.6082H90.1709V52.682H87.2351V53.002ZM92.7857 53.4554V53.4078H93.7183V53.0451H92.7906V52.5531H92.3365V53.0451H91.4039V53.4078H92.3365V53.4554C92.3365 53.9878 91.9301 54.4678 91.2748 54.654L91.4947 55.0118C92.0018 54.8567 92.377 54.5296 92.5658 54.1047C92.7572 54.4891 93.1231 54.79 93.6226 54.9309L93.8282 54.5825C93.1734 54.4007 92.7857 53.9425 92.7857 53.4554ZM91.7004 56.4825L91.8678 56.8309C92.5155 56.7282 93.0465 56.4371 93.2927 56.0314C93.5416 56.4371 94.0744 56.7353 94.7274 56.8358L94.8948 56.4874C94.1772 56.3798 93.6252 56.0194 93.546 55.6185H94.7176V55.2554H91.8727V55.6185H93.0465C92.9651 56.0287 92.4202 56.3798 91.7004 56.4825ZM94.1964 55.0407H94.6509V53.9758H95.2723V53.5989H94.6509V52.5722H94.1964V55.0407ZM96.2187 52.8922C95.5781 52.8945 95.1214 53.4771 95.1236 54.3914C95.1214 55.3149 95.5781 55.8976 96.2187 55.8954C96.8597 55.8976 97.3164 55.3149 97.3187 54.3914C97.3164 53.4771 96.8597 52.8945 96.2187 52.8922ZM95.559 54.3914C95.5568 53.7207 95.8292 53.3002 96.2187 53.298C96.6158 53.3002 96.8837 53.7207 96.8837 54.3914C96.8837 55.0718 96.6158 55.4896 96.2187 55.4896C95.8292 55.4896 95.5568 55.0718 95.559 54.3914ZM97.9548 56.85H98.4088V54.63H99.0975V54.2482H98.4088V52.5722H97.9548V56.85ZM102.779 55.9429H101.034V55.0647H102.315V52.8634H101.866V53.5989H99.7616V52.8634H99.3076V55.0647H100.584V55.9429H98.858V56.3202H102.779V55.9429ZM99.7616 54.6967V53.9665H101.866V54.6967H99.7616ZM104.137 53.8327V53.3794H105.069V53.002H102.721V53.3794H103.687V53.8327C103.685 54.5558 103.214 55.3629 102.563 55.6758L102.831 56.0336C103.319 55.79 103.721 55.2625 103.917 54.654C104.11 55.2127 104.493 55.6945 104.973 55.9238L105.232 55.5705C104.581 55.2625 104.134 54.5082 104.137 53.8327ZM105.528 56.85H105.983V54.6491H106.671V54.2674H105.983V52.5722H105.528V56.85Z" fill="#6D6D6D"/>
<path id="Vector_8" d="M243.5 76.8888H96.1546C95.1712 76.8888 94.374 77.6847 94.374 78.6665V103.555C94.374 104.537 95.1712 105.333 96.1546 105.333H243.5C244.483 105.333 245.28 104.537 245.28 103.555V78.6665C245.28 77.6847 244.483 76.8888 243.5 76.8888Z" fill="#F9F8F9"/>
<path id="Vector_9" d="M137.309 84.4286H134.217V85.0481H134.71V87.5428L134.077 87.5459L134.162 88.1775C135.115 88.1717 136.381 88.1504 137.516 87.953L137.473 87.3939C137.26 87.421 137.041 87.4424 136.816 87.4606V85.0481H137.309V84.4286ZM135.459 87.5304V85.0481H136.067V87.5064C135.864 87.5153 135.66 87.5246 135.459 87.5304ZM137.741 89.4477H138.52V86.6526H139.336V86.0206H138.52V83.9179H137.741V89.4477ZM143.607 86.7739H140.479V86.1419H143.436V85.5344H140.479V84.9513H143.565V84.325H139.688V87.3877H143.607V86.7739ZM139.091 88.8037H144.161V88.1717H139.091V88.8037ZM148.712 83.9179H147.94V85.6255H146.424V86.2575H147.94V89.4597H148.712V83.9179ZM144.318 88.1593H144.787C145.615 88.1593 146.467 88.1139 147.361 87.9286L147.276 87.2966C146.524 87.4393 145.8 87.5001 145.097 87.5121V84.5077H144.318V88.1593ZM154.037 86.3975H148.967V86.9744H154.037V86.3975ZM149.545 87.7828H152.661V88.0624H149.552V89.3988H153.593V88.8704H150.324V88.5544H153.428V87.2481H149.545V87.7828ZM149.588 84.5441H152.643V84.8237H149.6V86.1361H153.52V85.6135H150.373V85.3157H153.422V84.0153H149.588V84.5441ZM158.064 84.453H156.957V83.8939H156.171V84.453H155.058V85.0664H156.171C156.159 85.6619 155.748 86.2486 154.863 86.4761L155.228 87.0899C155.876 86.9077 156.32 86.525 156.567 86.0357C156.816 86.4793 157.258 86.8255 157.9 86.9868L158.24 86.3913C157.355 86.1664 156.959 85.6135 156.944 85.0664H158.064V84.453ZM155.399 88.8339L155.678 89.4233C156.561 89.3077 157.181 88.9615 157.498 88.4904C157.821 88.9646 158.444 89.317 159.336 89.4353L159.61 88.8459C158.645 88.7184 158.098 88.3237 157.955 87.9161H159.367V87.3086H155.636V87.9161H157.054C156.911 88.3326 156.369 88.7153 155.399 88.8339ZM158.52 87.0717H159.299V85.7957H160.048V85.1575H159.299V83.9179H158.52V87.0717ZM164.344 85.425H161.246V84.1126H160.473V86.0326H164.344V85.425ZM159.84 87.2357H164.91V86.6281H159.84V87.2357ZM160.425 89.3259H164.38V88.7064H161.204V87.6855H160.425V89.3259ZM168.359 87.3028C167.187 87.3028 166.457 87.6975 166.46 88.3721C166.457 89.0557 167.187 89.4535 168.359 89.4535C169.513 89.4535 170.224 89.0557 170.227 88.3721C170.224 87.6975 169.513 87.3028 168.359 87.3028ZM165.943 86.865H168.627V84.2646H167.848V84.9633H166.716V84.2646H165.943V86.865ZM166.716 86.2513V85.5646H167.848V86.2513H166.716ZM167.239 88.3721C167.233 88.0561 167.632 87.9073 168.359 87.9041C169.077 87.9073 169.46 88.0561 169.46 88.3721C169.46 88.6881 169.077 88.8521 168.359 88.8521C167.632 88.8521 167.233 88.6881 167.239 88.3721ZM169.394 87.181H170.173V85.8504H170.921V85.2001H170.173V83.9179H169.394V87.181ZM171.736 84.1975H170.957V86.7864H173.592V85.8139H174.615V86.9441H175.388V83.9179H174.615V85.1819H173.592V84.1975H172.825V84.9086H171.736V84.1975ZM171.693 89.3748H175.388V87.1753H174.615V87.6855H172.46V87.1753H171.693V89.3748ZM171.736 86.1664V85.5041H172.825V86.1664H171.736ZM172.46 88.7548V88.281H174.615V88.7548H172.46ZM180.712 86.7437H175.66V87.3633H180.712V86.7437ZM176.166 85.2184C176.166 85.9264 176.966 86.3606 178.186 86.3606C179.398 86.3606 180.198 85.9264 180.201 85.2184C180.198 84.5135 179.398 84.0824 178.186 84.0881C176.966 84.0824 176.166 84.5135 176.166 85.2184ZM176.269 89.3504H180.14V88.7308H177.048V87.7339H176.269V89.3504ZM176.975 85.2184C176.969 84.8841 177.416 84.7019 178.186 84.6957C178.95 84.7019 179.398 84.8841 179.398 85.2184C179.398 85.5619 178.95 85.7348 178.186 85.7348C177.416 85.7348 176.969 85.5619 176.975 85.2184ZM181.569 87.5033V87.5699H182.372V87.5033C182.376 87.0779 182.528 86.8801 182.871 86.6766C183.27 86.4366 183.529 86.1206 183.529 85.6197C183.529 84.869 182.929 84.4286 182.08 84.4286C181.301 84.4286 180.665 84.8388 180.65 85.6926H181.515C181.527 85.337 181.792 85.1486 182.074 85.1455C182.369 85.1486 182.607 85.3459 182.604 85.6499C182.607 85.9295 182.403 86.1179 182.141 86.2877C181.776 86.5157 181.572 86.7468 181.569 87.5033ZM181.478 88.433C181.472 88.7153 181.703 88.9433 181.989 88.9433C182.26 88.9433 182.494 88.7153 182.494 88.433C182.494 88.1535 182.26 87.9255 181.989 87.9286C181.703 87.9255 181.472 88.1535 181.478 88.433Z" fill="#242424"/>
<path id="Vector_10" d="M138.144 96.0304H137.479V94.35H137.025V98.6229H137.479V96.4029H138.144V96.0304ZM134.304 97.5486H134.658C135.301 97.5513 135.975 97.5082 136.709 97.3624L136.657 96.9806C135.975 97.1193 135.351 97.1691 134.753 97.1717V94.7655H134.304V97.5486ZM139.215 94.622C138.543 94.622 138.06 95.0375 138.062 95.6389C138.06 96.1713 138.437 96.558 138.99 96.6393V97.334C138.591 97.3433 138.208 97.346 137.876 97.3482L137.947 97.7206C138.688 97.7277 139.686 97.7206 140.592 97.5633L140.559 97.2242C140.205 97.2695 139.825 97.298 139.444 97.3171V96.6393C139.984 96.5535 140.364 96.1691 140.367 95.6389C140.364 95.0375 139.874 94.622 139.215 94.622ZM138.502 95.6389C138.5 95.2571 138.803 95.0091 139.215 95.0042C139.621 95.0091 139.92 95.2571 139.922 95.6389C139.92 96.0184 139.621 96.2718 139.215 96.2691C138.803 96.2718 138.5 96.0184 138.502 95.6389ZM140.817 98.6277H141.271V96.47H141.931V96.0878H141.271V94.35H140.817V98.6277ZM145.832 94.35H145.378V96.6224H145.832V95.682H146.454V95.3144H145.832V94.35ZM142.47 96.3362L142.661 96.7038C143.936 96.4318 144.675 95.7371 144.675 94.646H142.661V95.0091H144.173C144.11 95.6153 143.549 96.1189 142.47 96.3362ZM143.082 98.5753H145.947V98.2313H143.537V97.8446H145.803V97.5153H143.537V97.1477H145.851V96.8042H143.082V98.5753ZM150.159 96.5842H146.252V96.9473H150.159V96.5842ZM146.673 95.3478C146.67 95.8873 147.271 96.2144 148.203 96.2166C149.131 96.2144 149.731 95.8873 149.734 95.3478C149.731 94.8109 149.131 94.4909 148.203 94.4931C147.271 94.4909 146.67 94.8109 146.673 95.3478ZM146.745 98.5371H149.719V98.1695H147.204V97.2958H146.745V98.5371ZM147.142 95.3478C147.139 95.0424 147.546 94.8562 148.203 94.8562C148.858 94.8562 149.267 95.0424 149.265 95.3478C149.267 95.6655 148.858 95.8442 148.203 95.8442C147.546 95.8442 147.139 95.6655 147.142 95.3478ZM152.1 95.1713V94.6175H151.66V95.1713C151.66 95.6464 151.349 96.1904 150.77 96.4411L151.019 96.7944C151.435 96.6153 151.727 96.2718 151.885 95.8753C152.038 96.2264 152.317 96.5175 152.717 96.6704L152.956 96.322C152.399 96.1118 152.1 95.6389 152.1 95.1713ZM151.559 97.8446C151.555 98.3317 152.112 98.6206 153.008 98.6184C153.902 98.6206 154.464 98.3317 154.467 97.8446C154.464 97.358 153.902 97.0691 153.008 97.0664C152.112 97.0691 151.555 97.358 151.559 97.8446ZM152.009 97.8446C152.004 97.5704 152.384 97.4126 153.008 97.4153C153.63 97.4126 154.01 97.5704 154.012 97.8446C154.01 98.1171 153.63 98.2744 153.008 98.2695C152.384 98.2744 152.004 98.1171 152.009 97.8446ZM153.09 96.8518H153.51V95.8398H154.012V96.9855H154.443V94.3549H154.012V95.4673H153.51V94.4313H153.09V96.8518ZM157.943 94.35H157.489V96.8518H157.943V95.7869H158.564V95.4051H157.943V94.35ZM154.552 96.4651L154.739 96.8135C156.011 96.4864 156.754 95.7131 156.757 94.6126H154.758V94.9802H156.269C156.19 95.6535 155.581 96.1953 154.552 96.4651ZM155.112 97.4055H157.489V98.6277H157.943V97.038H155.112V97.4055ZM160.314 94.4215C159.348 94.4193 158.782 94.6793 158.784 95.1571C158.782 95.6366 159.348 95.8971 160.314 95.8971C161.28 95.8971 161.842 95.6366 161.844 95.1571C161.842 94.6793 161.28 94.4193 160.314 94.4215ZM158.363 96.5224H162.27V96.1593H158.363V96.5224ZM158.832 97.1909H161.328V97.5251H158.836V98.5846H161.897V98.2362H159.281V97.8544H161.778V96.8518H158.832V97.1909ZM159.257 95.1571C159.255 94.9038 159.633 94.7558 160.314 94.7558C161 94.7558 161.378 94.9038 161.376 95.1571C161.378 95.422 161 95.558 160.314 95.558C159.633 95.558 159.255 95.422 159.257 95.1571ZM166.238 94.35H165.784V98.6229H166.238V96.4318H166.903V96.0544H166.238V94.35ZM162.905 97.482L163.158 97.8353C164.569 97.1406 165.114 96.0353 165.119 94.7989H163.12V95.1758H164.655C164.562 96.174 163.978 96.9473 162.905 97.482ZM168.275 95.2429V95.0566H169.217V94.6891H166.855V95.0566H167.816V95.2429C167.813 95.8278 167.402 96.3815 166.735 96.6082L166.969 96.9664C167.479 96.7873 167.861 96.4198 168.052 95.954C168.248 96.3815 168.619 96.718 169.111 96.8802L169.346 96.5273C168.684 96.3171 168.275 95.7966 168.275 95.2429ZM167.438 98.5371H170.369V98.1695H167.897V97.1811H167.438V98.5371ZM169.786 97.4771H170.24V94.3549H169.786V97.4771ZM172.711 95.4384V94.7082H172.257V95.4384C172.255 96.2215 171.81 97.0429 171.152 97.358L171.435 97.7255C171.923 97.4722 172.298 96.9593 172.489 96.3526C172.678 96.9233 173.039 97.4006 173.505 97.6442L173.787 97.2815C173.149 96.9713 172.706 96.1953 172.711 95.4384ZM174.108 98.6277H174.562V96.4411H175.251V96.0544H174.562V94.35H174.108V98.6277ZM178.378 94.3549H177.923V96.8993H178.378V95.8015H179.004V95.4193H178.378V94.3549ZM175.183 94.942H176.69V95.4433H175.188V96.6989H175.532C176.355 96.6989 176.922 96.6753 177.584 96.5558L177.536 96.1931C176.912 96.298 176.386 96.3193 175.642 96.322V95.7869H177.134V94.5793H175.183V94.942ZM175.633 98.5753H178.378V97.1002H175.633V98.5753ZM176.078 98.2078V97.4535H177.937V98.2078H176.078ZM180.749 94.4215C179.783 94.4193 179.216 94.6793 179.219 95.1571C179.216 95.6366 179.783 95.8971 180.749 95.8971C181.715 95.8971 182.277 95.6366 182.279 95.1571C182.277 94.6793 181.715 94.4193 180.749 94.4215ZM178.798 96.5224H182.705V96.1593H178.798V96.5224ZM179.267 97.1909H181.763V97.5251H179.271V98.5846H182.332V98.2362H179.716V97.8544H182.212V96.8518H179.267V97.1909ZM179.692 95.1571C179.69 94.9038 180.068 94.7558 180.749 94.7558C181.435 94.7558 181.813 94.9038 181.81 95.1571C181.813 95.422 181.435 95.558 180.749 95.558C180.068 95.558 179.69 95.422 179.692 95.1571ZM186.702 94.35H186.247V96.5126H186.702V95.6202H187.323V95.2429H186.702V94.35ZM183.402 95.4531C183.397 96.014 183.878 96.4078 184.526 96.4078C185.176 96.4078 185.649 96.014 185.649 95.4531C185.649 94.8873 185.176 94.5002 184.526 94.498C183.878 94.5002 183.397 94.8873 183.402 95.4531ZM183.842 95.4531C183.84 95.1042 184.131 94.8682 184.526 94.8704C184.92 94.8682 185.209 95.1042 185.209 95.4531C185.209 95.8015 184.92 96.0451 184.526 96.0451C184.131 96.0451 183.84 95.8015 183.842 95.4531ZM183.933 97.062H186.252V97.4535H183.943V98.5753H186.85V98.2126H184.387V97.7922H186.702V96.7086H183.933V97.062ZM188.269 94.67C187.629 94.6722 187.172 95.2549 187.174 96.1691C187.172 97.0926 187.629 97.6753 188.269 97.6731C188.91 97.6753 189.367 97.0926 189.369 96.1691C189.367 95.2549 188.91 94.6722 188.269 94.67ZM187.61 96.1691C187.607 95.4984 187.88 95.078 188.269 95.0758C188.666 95.078 188.934 95.4984 188.934 96.1691C188.934 96.8495 188.666 97.2673 188.269 97.2673C187.88 97.2673 187.607 96.8495 187.61 96.1691ZM190.006 98.6277H190.46V96.4078H191.148V96.026H190.46V94.35H190.006V98.6277ZM194.83 97.7206H193.085V96.8424H194.366V94.6411H193.917V95.3766H191.812V94.6411H191.358V96.8424H192.635V97.7206H190.909V98.098H194.83V97.7206ZM191.812 96.4744V95.7442H193.917V96.4744H191.812ZM196.187 95.6104V95.1571H197.12V94.7798H194.772V95.1571H195.738V95.6104C195.735 96.3335 195.265 97.1406 194.614 97.4535L194.882 97.8113C195.37 97.5678 195.772 97.0402 195.967 96.4318C196.161 96.9904 196.544 97.4722 197.024 97.7015L197.282 97.3482C196.632 97.0402 196.185 96.286 196.187 95.6104ZM197.579 98.6277H198.033V96.4269H198.722V96.0451H198.033V94.35H197.579V98.6277Z" fill="#6D6D6D"/>
<path id="Vector_11" d="M243.5 165.333H96.1546C95.1712 165.333 94.374 166.129 94.374 167.111V192C94.374 192.981 95.1712 193.777 96.1546 193.777H243.5C244.483 193.777 245.28 192.981 245.28 192V167.111C245.28 166.129 244.483 165.333 243.5 165.333Z" fill="#F9F8F9"/>
<path id="Vector_12" d="M231.481 117.778H37.3949C36.4115 117.778 35.6143 118.574 35.6143 119.556V154.667C35.6143 155.649 36.4115 156.445 37.3949 156.445H231.481C232.464 156.445 233.261 155.649 233.261 154.667V119.556C233.261 118.574 232.464 117.778 231.481 117.778Z" fill="#F3F2F3"/>
<path id="Vector_13" d="M65.879 126.222H50.7438C48.777 126.222 47.1826 127.814 47.1826 129.778V144.889C47.1826 146.852 48.777 148.444 50.7438 148.444H65.879C67.8458 148.444 69.4402 146.852 69.4402 144.889V129.778C69.4402 127.814 67.8458 126.222 65.879 126.222Z" fill="#FDF4DD"/>
<path id="Vector_14" d="M57.1182 139.462V139.634H59.1837V139.462C59.1917 138.368 59.583 137.86 60.4671 137.337C61.4922 136.72 62.1573 135.907 62.1573 134.618C62.1573 132.688 60.6157 131.556 58.4327 131.556C56.4295 131.556 54.7941 132.61 54.7549 134.805H56.9771C57.0082 133.892 57.6893 133.407 58.4171 133.399C59.1761 133.407 59.7864 133.915 59.7784 134.696C59.7864 135.415 59.262 135.899 58.589 136.337C57.6501 136.923 57.1258 137.516 57.1182 139.462ZM56.8831 141.852C56.8676 142.579 57.4623 143.165 58.1977 143.165C58.8943 143.165 59.4966 142.579 59.4966 141.852C59.4966 141.134 58.8943 140.548 58.1977 140.556C57.4623 140.548 56.8676 141.134 56.8831 141.852Z" fill="#F0AD4C"/>
<path id="Vector_15" d="M77.4541 133.333H188.297" stroke="#DBD9D8" stroke-width="6.23211" stroke-linecap="round" stroke-linejoin="round"/>
<path id="Vector_16" d="M131.763 176.444H215.452" stroke="#ECEAEA" stroke-width="4.89666" stroke-linecap="round" stroke-linejoin="round"/>
<path id="Vector_17" d="M131.763 183.555H168.711" stroke="#ECEAEA" stroke-width="3.56121" stroke-linecap="round" stroke-linejoin="round"/>
<path id="Vector_18" d="M77.4541 143.111H131.763" stroke="#DBD9D8" stroke-width="4.89666" stroke-linecap="round" stroke-linejoin="round"/>
<path id="Vector_19" d="M120.187 82.2223H109.504C107.537 82.2223 105.942 83.8142 105.942 85.7779V96.4445C105.942 98.4082 107.537 100 109.504 100H120.187C122.154 100 123.748 98.4082 123.748 96.4445V85.7779C123.748 83.8142 122.154 82.2223 120.187 82.2223Z" fill="#EBFEF1"/>
<path id="Vector_20" d="M113.42 87.1107C111.472 88.4173 108.745 91.936 113.42 95.5551" stroke="#74D089" stroke-width="1.7806" stroke-linejoin="round"/>
<path id="Vector_21" d="M119.301 87.1107C117.353 88.4173 114.626 91.936 119.301 95.5551" stroke="#74D089" stroke-width="1.7806" stroke-linejoin="round"/>
<path id="Vector_22" d="M120.187 170.667H109.504C107.537 170.667 105.942 172.258 105.942 174.222V184.889C105.942 186.852 107.537 188.444 109.504 188.444H120.187C122.154 188.444 123.748 186.852 123.748 184.889V174.222C123.748 172.258 122.154 170.667 120.187 170.667Z" fill="#EBFEF1"/>
<path id="Vector_23" d="M113.42 175.555C111.472 176.862 108.745 180.381 113.42 184" stroke="#74D089" stroke-width="1.7806" stroke-linejoin="round"/>
<path id="Vector_24" d="M119.301 175.555C117.353 176.862 114.626 180.381 119.301 184" stroke="#74D089" stroke-width="1.7806" stroke-linejoin="round"/>
</g>
<defs>
<filter id="filter0_d_1051_21236" x="3.55906" y="3.54845" width="272.882" height="220.911" filterUnits="userSpaceOnUse" color-interpolation-filters="sRGB">
<feFlood flood-opacity="0" result="BackgroundImageFix"/>
<feColorMatrix in="SourceAlpha" type="matrix" values="0 0 0 0 0 0 0 0 0 0 0 0 0 0 0 0 0 0 127 0" result="hardAlpha"/>
<feOffset dy="2.67091"/>
<feGaussianBlur stdDeviation="3.33863"/>
<feColorMatrix type="matrix" values="0 0 0 0 0.175 0 0 0 0 0.175 0 0 0 0 0.175 0 0 0 0.04 0"/>
<feBlend mode="normal" in2="BackgroundImageFix" result="effect1_dropShadow_1051_21236"/>
<feBlend mode="normal" in="SourceGraphic" in2="effect1_dropShadow_1051_21236" result="shape"/>
</filter>
</defs>
</svg>
