<svg width="44" height="44" viewBox="0 0 44 44" fill="none" xmlns="http://www.w3.org/2000/svg">
<g id="Group 2019">
<g id="Group 54">
<circle id="Ellipse 651" cx="22" cy="22" r="22" fill="#E0E0E0"/>
<g id="Arrow / Chevron_Left">
<path id="Vector" d="M24.2929 29.7071C24.6834 30.0976 25.3166 30.0976 25.7071 29.7071C26.0976 29.3166 26.0976 28.6834 25.7071 28.2929L24.2929 29.7071ZM18 22L17.2929 21.2929C16.9024 21.6834 16.9024 22.3166 17.2929 22.7071L18 22ZM25.7071 15.7071C26.0976 15.3166 26.0976 14.6834 25.7071 14.2929C25.3166 13.9024 24.6834 13.9024 24.2929 14.2929L25.7071 15.7071ZM25.7071 28.2929L18.7071 21.2929L17.2929 22.7071L24.2929 29.7071L25.7071 28.2929ZM18.7071 22.7071L25.7071 15.7071L24.2929 14.2929L17.2929 21.2929L18.7071 22.7071Z" fill="#3D3D3D"/>
</g>
</g>
</g>
</svg>
