<svg width="25" height="27" viewBox="0 0 25 27" fill="none" xmlns="http://www.w3.org/2000/svg">
<path id="Vector" d="M23.8669 15.8422V15.6773H23.8108C23.3143 14.2727 22.4254 13.0547 21.2763 12.1522C20.5893 11.6125 19.8085 11.1873 18.9629 10.9022C19.0133 10.7685 19.0606 10.6332 19.103 10.4954C19.316 9.80755 19.4305 9.07644 19.4305 8.3181C19.4305 7.24745 19.1999 6.23126 18.7891 5.31356C18.2101 4.0211 17.2692 2.92644 16.0953 2.15769C14.9502 1.40815 13.5832 0.968526 12.1138 0.960518H12.1827C12.1458 0.959717 12.2195 0.959717 12.1827 0.959717C12.1594 0.959717 12.1346 0.960518 12.1106 0.960518C12.0978 0.960518 12.085 0.959717 12.0721 0.959717C12.0601 0.959717 12.0481 0.960518 12.0361 0.960518L10.9134 0.959717H5.73477H5.73316H0.553711V5.31356V6.14077V10.4474V10.4946H0.600957H5.04209H5.73316V12.0521V15.6268V15.6757V20.8567V26.0378H10.9142H16.0953H16.1441H16.4829C18.2918 26.0378 19.955 25.418 21.2763 24.381C22.4254 23.4785 23.3143 22.2605 23.8108 20.8559H23.8669V20.691C24.1175 19.9278 24.2552 19.1126 24.2552 18.2654C24.2552 17.4198 24.1175 16.6054 23.8669 15.8422ZM11.0952 1.02698C11.0351 1.03499 10.9743 1.0422 10.9142 1.05181C10.9719 1.043 11.0327 1.03499 11.0952 1.02698ZM5.73477 6.14157H10.9142H12.0729C13.2749 6.14157 14.2503 7.11612 14.2503 8.3189C14.2503 9.52087 13.2757 10.4962 12.0729 10.4962H10.9142H5.73477V6.14157ZM16.0953 20.8583H10.9631L10.9142 20.8095L8.72008 18.6153L5.78201 15.6773H9.1557H10.9142H16.0953H16.4837C17.415 15.6773 18.2294 16.1706 18.6866 16.9089C18.9308 17.3045 19.075 17.7689 19.075 18.2678C19.075 18.7667 18.9316 19.2311 18.6866 19.6267C18.2302 20.365 17.4158 20.8583 16.4837 20.8583H16.0953Z" fill="#FF4C00"/>
</svg>
