<svg width="211" height="34" viewBox="0 0 211 34" fill="none" xmlns="http://www.w3.org/2000/svg">
<path d="M6.08477 12.9248H0L7.02163 19.8823V15.0364V12.9248H6.08477Z" fill="#F53000"/>
<path d="M11.6618 19.9521H7.08789L11.0716 23.9359L14.0454 26.9105V19.9521H11.6618Z" fill="#F53000"/>
<path d="M31.6067 20.1751V19.9519H31.5312C30.8582 18.0481 29.6534 16.396 28.0947 15.1734C27.1627 14.4419 26.1048 13.8647 24.9585 13.479C25.0267 13.298 25.0908 13.1145 25.1485 12.9278C25.4367 11.995 25.5925 11.0037 25.5925 9.97674C25.5925 8.52517 25.28 7.14747 24.7231 5.90372C23.938 4.15096 22.6626 2.66691 21.0706 1.62531C19.5175 0.608883 17.6649 0.0129895 15.6734 0.00162369H15.7668C15.7173 0.000811843 15.8171 0.000811843 15.7668 0.000811843C15.7351 0.000811843 15.7019 0.00162369 15.6694 0.00162369C15.6523 0.00162369 15.6345 0.000811843 15.6174 0.000811843C15.6012 0.000811843 15.585 0.00162369 15.5687 0.00162369L14.0457 0H7.02407H7.02163H0V5.90291V7.02407V12.8628V12.927H0.0641356H6.08477H7.02163V15.0386V19.8853V19.9519V26.9759V34H14.0457H21.0698H21.1363H21.5958C24.0484 34 26.3037 33.1597 28.0938 31.7544C29.6518 30.531 30.8574 28.8797 31.5304 26.9759H31.6059V26.7519C31.946 25.7168 32.1319 24.6118 32.1319 23.4631C32.1328 22.3143 31.9468 21.2102 31.6067 20.1751ZM14.2917 0.0901146C14.2097 0.100669 14.1277 0.111223 14.0465 0.124212C14.1245 0.112034 14.2073 0.100669 14.2917 0.0901146ZM7.02407 7.02407H14.0457H15.6166C17.2468 7.02407 18.5677 8.34575 18.5677 9.97512C18.5677 11.6053 17.246 12.9262 15.6166 12.9262H14.0457H7.02407V7.02407ZM21.0706 26.9759H14.1131L14.0465 26.9094L11.0719 23.9348L7.0882 19.9511H11.6613H14.0457H21.0698H21.5958C22.8591 19.9511 23.9632 20.62 24.5818 21.621C24.913 22.1568 25.1079 22.7868 25.1079 23.4631C25.1079 24.1394 24.913 24.7693 24.5818 25.3052C23.9632 26.3062 22.8591 26.9751 21.5958 26.9751H21.0706V26.9759Z" fill="#FF4C00"/>
<path d="M56.1854 21.9911C56.1854 28.1449 51.1771 33.1532 45.0234 33.1532C38.8696 33.1532 33.8613 28.1441 33.8613 21.9911C33.8613 15.8382 38.8696 10.8291 45.0234 10.8291C51.1771 10.8291 56.1854 15.8382 56.1854 21.9911ZM48.9348 21.9911C48.9348 19.6059 47.1699 17.6981 45.0234 17.6981C42.8769 17.6981 41.1119 19.6059 41.1119 21.9911C41.1119 24.3763 42.8769 26.2842 45.0234 26.2842C47.1699 26.2842 48.9348 24.3763 48.9348 21.9911Z" fill="#FF4C00"/>
<path d="M79.6874 21.9911C79.6874 28.1449 74.6791 33.1532 68.5253 33.1532C62.3715 33.1532 57.3633 28.1441 57.3633 21.9911C57.3633 15.8382 62.3715 10.8291 68.5253 10.8291C74.6791 10.8291 79.6874 15.8382 79.6874 21.9911ZM72.4368 21.9911C72.4368 19.6059 70.6718 17.6981 68.5253 17.6981C66.3788 17.6981 64.6139 19.6059 64.6139 21.9911C64.6139 24.3763 66.3788 26.2842 68.5253 26.2842C70.6718 26.2842 72.4368 24.3763 72.4368 21.9911Z" fill="#FF4C00"/>
<path d="M103.388 11.3057L94.3817 21.6535L103.292 32.6718H94.238L88.2498 24.9593V32.6718H81.3516V4.98228L88.2498 0V18.3956L94.2859 11.3057H103.388Z" fill="#FF4C00"/>
<path d="M123.002 25.9115C123.002 29.331 121.168 33.1962 112.744 33.1962C109.027 33.1962 104.964 31.5611 103.18 29.8757L106.5 24.8212C108.185 26.2086 110.266 26.9027 112.546 26.9027C114.032 26.9027 115.866 26.6056 115.965 25.8124C116.064 25.0688 114.429 24.326 112.595 23.9793C107.045 22.889 104.171 21.0558 104.171 17.3392C104.171 13.3255 107.59 10.2031 113.389 10.2031C116.064 10.2031 120.574 10.5003 122.755 12.6313L119.484 17.5373C118.146 16.4965 116.61 16.2489 115.024 16.2489C114.131 16.2489 111.555 16.348 111.555 17.3392C111.555 18.281 114.478 18.7762 115.123 18.9248C122.506 20.9065 123.002 24.0783 123.002 25.9115Z" fill="#FF4C00"/>
<path d="M136.98 25.7715H137.747V32.6697H135.735C130.13 32.6697 126.824 31.4723 126.824 24.7656V18.059H124.094V11.2566H126.824V8.52632L133.722 3.44824V11.2566H140.046L137.315 18.059H133.722V24.0471C133.722 25.8194 134.825 25.7715 136.98 25.7715Z" fill="#FF4C00"/>
<path d="M155.16 12.3578H161.727V32.6969H155.16V31.648C153.655 32.6514 151.831 33.1986 149.961 33.1986C144.397 33.1986 139.883 28.4104 139.883 22.5277C139.883 16.6451 144.397 11.9023 149.961 11.9023C151.831 11.9023 153.655 12.4495 155.16 13.453V12.3578ZM155.115 20.339C154.294 18.8339 152.834 17.9222 151.193 17.9222C148.776 17.9222 146.769 19.9745 146.769 22.5277C146.769 25.081 148.776 27.1796 151.193 27.1796C152.834 27.1796 154.294 26.2216 155.115 24.7628V20.339Z" fill="#FF4C00"/>
<path d="M164.25 5.74859C164.25 3.68894 166.07 2.05957 168.37 2.05957C170.669 2.05957 172.49 3.68813 172.49 5.74859C172.49 7.80823 170.67 9.4376 168.37 9.4376C166.07 9.4376 164.25 7.80823 164.25 5.74859ZM171.867 32.6717H164.968V11.2578H171.867V32.6717Z" fill="#FF4C00"/>
<path d="M187.39 11.0166C188.922 11.0166 190.504 11.5435 191.941 12.5494L189.402 18.2501C188.348 17.4358 187.39 17.1006 186.24 17.1964C182.503 17.5795 182.072 21.3165 182.072 23.3761V32.6701H175.174V11.2561H182.072V14.035C183.222 11.783 185.426 11.0166 187.39 11.0166Z" fill="#FF4C00"/>
<path d="M210.132 26.16C210.132 29.4658 208.359 33.2019 200.215 33.2019C196.622 33.2019 192.694 31.6212 190.969 29.9919L194.179 25.1054C195.807 26.4466 197.82 27.1171 200.023 27.1171C201.46 27.1171 203.233 26.8297 203.329 26.0634C203.425 25.3449 201.844 24.6264 200.071 24.2911C194.706 23.2373 191.928 21.4643 191.928 17.8719C191.928 13.9913 195.233 10.9736 200.838 10.9736C203.425 10.9736 207.784 11.261 209.893 13.3207L206.731 18.0635C205.437 17.0576 203.952 16.8181 202.419 16.8181C201.557 16.8181 199.065 16.9139 199.065 17.8719C199.065 18.7819 201.891 19.2609 202.515 19.4046C209.653 21.3214 210.132 24.3877 210.132 26.16Z" fill="#FF4C00"/>
</svg>
