<svg width="48" height="48" viewBox="0 0 48 48" fill="none" xmlns="http://www.w3.org/2000/svg">
<g id="btn-modify">
<rect id="Rectangle 4068" width="48" height="48" rx="17" fill="#6F6F6F"/>
<g id="Group 2251">
<path id="Vector" d="M18.667 14.1667L18.667 8.33333C18.667 7.8731 19.0401 7.5 19.5003 7.5L25.8029 7.5C26.035 7.5 26.2566 7.59683 26.4144 7.76716L30.1118 11.7604C30.2544 11.9144 30.3337 12.1166 30.3337 12.3266V21.6667C30.3337 22.1269 29.9606 22.5 29.5003 22.5H24.5003" stroke="#F7F7F7" stroke-width="2" stroke-linecap="round" stroke-linejoin="round"/>
<path id="Vector_2" d="M17 22.4993H19.0833L25.3333 16.2493L23.25 14.166L17 20.416V22.4993Z" stroke="#F7F7F7" stroke-width="2" stroke-linecap="round" stroke-linejoin="round"/>
<path id="Vector_3" d="M21.167 16.666L22.8337 18.3327" stroke="#F7F7F7" stroke-width="2" stroke-linecap="round" stroke-linejoin="round"/>
<path id="Vector_4" d="M30.334 12.5L26.1673 12.5C25.7071 12.5 25.334 12.1269 25.334 11.6667L25.334 7.5" stroke="#F7F7F7" stroke-width="2" stroke-linecap="round" stroke-linejoin="round"/>
</g>
<path id="&#236;&#136;&#152;&#236;&#160;&#149;" d="M19.7656 29.4219V28.8477H18.6055V29.4219C18.5996 30.834 16.9004 32.123 14.8438 32.3984L15.2891 33.3125C16.9941 33.0371 18.5 32.1465 19.1855 30.9102C19.8711 32.1465 21.377 33.0371 23.0938 33.3125L23.5273 32.3984C21.4648 32.123 19.7598 30.8164 19.7656 29.4219ZM14.3867 35.2578H18.6055V38.9961H19.6953V35.2578H23.9609V34.3438H14.3867V35.2578ZM32.5117 28.4961H31.3984V31.168H29.4414V32.082H31.3984V34.7422H32.5117V28.4961ZM23.7578 33.793L24.3438 34.6836C25.5977 34.2207 26.5176 33.2773 26.9746 32.1055C27.4316 33.1426 28.2988 33.9863 29.4766 34.3906L30.0508 33.5117C28.4629 32.9727 27.5137 31.6777 27.5195 30.3477V30.125H29.7695V29.2227H24.1094V30.125H26.3828V30.3594C26.3887 31.8066 25.3867 33.2246 23.7578 33.793ZM25.4453 37.0156C25.4395 38.2637 26.7871 38.9902 28.9961 38.9961C31.1934 38.9902 32.541 38.2637 32.5469 37.0156C32.541 35.7676 31.1934 35.041 28.9961 35.0352C26.7871 35.041 25.4395 35.7676 25.4453 37.0156ZM26.5469 37.0156C26.541 36.3008 27.4551 35.8965 28.9961 35.9023C30.5254 35.8965 31.4395 36.3008 31.4453 37.0156C31.4395 37.7246 30.5254 38.1289 28.9961 38.1172C27.4551 38.1289 26.541 37.7246 26.5469 37.0156Z" fill="#F7F7F7"/>
</g>
</svg>
