<svg width="24" height="24" viewBox="0 0 24 24" fill="none" xmlns="http://www.w3.org/2000/svg">
<g id="icn_more">
<rect id="Rectangle 4133" x="0.5" y="0.5" width="23" height="23" rx="3.5" fill="current" stroke="#EFEFEF"/>
<g id="ellipsis-v">
<path d="M12 9C12.8284 9 13.5 8.32842 13.5 7.5C13.5 6.67158 12.8284 6 12 6C11.1716 6 10.5 6.67158 10.5 7.5C10.5 8.32842 11.1716 9 12 9Z" fill="#C1C1C1"/>
<path d="M13.5 11.9883C13.5 12.8167 12.8284 13.4883 12 13.4883C11.1716 13.4883 10.5 12.8167 10.5 11.9883C10.5 11.1599 11.1716 10.4883 12 10.4883C12.8284 10.4883 13.5 11.1599 13.5 11.9883Z" fill="#C1C1C1"/>
<path d="M13.5 16.5C13.5 17.3284 12.8284 18 12 18C11.1716 18 10.5 17.3284 10.5 16.5C10.5 15.6716 11.1716 15 12 15C12.8284 15 13.5 15.6716 13.5 16.5Z" fill="#C1C1C1"/>
</g>
</g>
</svg>
