<svg width="17" height="17" viewBox="0 0 17 17" fill="none" xmlns="http://www.w3.org/2000/svg">
<path fill-rule="evenodd" clip-rule="evenodd" d="M11.5929 16.8032L16.6924 12.5552C16.8872 12.3938 17 12.154 17 11.901C17 11.648 16.8872 11.4082 16.6924 11.2468L11.5929 6.9988C11.44 6.87214 11.2475 6.80301 11.049 6.80339C10.9258 6.80273 10.804 6.82882 10.692 6.87986C10.3907 7.01923 10.1982 7.32116 10.199 7.65299V9.30972C6.80306 8.97749 3.89852 6.72803 2.72831 3.52393L1.64892 0.56732C1.52726 0.230923 1.20784 0.00673485 0.850004 0.00658226C0.802243 -0.00219727 0.75328 -0.00219727 0.705519 0.00658226C0.293247 0.0776329 -0.00599086 0.438026 9.10539e-05 0.856184V3.40499C0.00518607 9.17159 4.44742 13.9637 10.199 14.4073V16.149C10.1985 16.4789 10.389 16.7792 10.6877 16.9194C10.9865 17.0596 11.3393 17.0143 11.5929 16.8032ZM11.8998 10.2023V9.46313L14.8235 11.9015L11.8998 14.3398V13.6007C11.8998 13.1315 11.5193 12.7511 11.0499 12.7511C6.91516 12.7502 3.27207 10.0345 2.0918 6.07322C4.02088 9.16416 7.4054 11.0452 11.0499 11.0519C11.5193 11.0519 11.8998 10.6715 11.8998 10.2023Z" fill="#3D3D3D"/>
</svg>
