<svg width="48" height="48" viewBox="0 0 48 48" fill="none" xmlns="http://www.w3.org/2000/svg">
<rect width="48" height="48" rx="17" fill="#6F6F6F"/>
<path d="M30.2222 23L30.2222 22.25L30.2222 23ZM17.7778 23V23.75V23ZM17 22.25H17.75H17ZM17 12.5L17 11.75C16.8011 11.75 16.6103 11.829 16.4697 11.9697C16.329 12.1103 16.25 12.3011 16.25 12.5L17 12.5ZM31 13.25L31.75 13.25V13.25L31 13.25ZM31 22.25H30.25H31ZM30.2222 12.5V11.75V12.5ZM30.2222 22.25H17.7778L17.7778 23.75H30.2222L30.2222 22.25ZM17.75 22.25L17.75 12.5L16.25 12.5L16.25 22.25H17.75ZM30.25 13.25L30.25 22.25H31.75L31.75 13.25L30.25 13.25ZM17 13.25L30.2222 13.25V11.75L17 11.75L17 13.25ZM31.75 13.25C31.75 12.3961 31.04 11.75 30.2222 11.75V13.25C30.2313 13.25 30.2375 13.2517 30.2417 13.2534C30.2464 13.2553 30.2497 13.2577 30.2516 13.2596C30.2535 13.2614 30.2531 13.2617 30.252 13.2593C30.2507 13.2564 30.25 13.2526 30.25 13.25L31.75 13.25ZM17.7778 22.25C17.7687 22.25 17.7625 22.2483 17.7583 22.2466C17.7536 22.2447 17.7503 22.2423 17.7484 22.2404C17.7465 22.2386 17.7469 22.2383 17.748 22.2406C17.7493 22.2436 17.75 22.2473 17.75 22.25H16.25C16.25 23.1039 16.96 23.75 17.7778 23.75L17.7778 22.25ZM30.2222 23.75C31.04 23.75 31.75 23.1039 31.75 22.25H30.25C30.25 22.2473 30.2507 22.2436 30.252 22.2406C30.2531 22.2383 30.2535 22.2386 30.2516 22.2404C30.2497 22.2423 30.2464 22.2447 30.2417 22.2466C30.2375 22.2483 30.2313 22.25 30.2222 22.25L30.2222 23.75Z" fill="#F7F7F7"/>
<path d="M23.25 20C23.25 20.4142 23.5858 20.75 24 20.75C24.4142 20.75 24.75 20.4142 24.75 20H23.25ZM24.75 15.5C24.75 15.0858 24.4142 14.75 24 14.75C23.5858 14.75 23.25 15.0858 23.25 15.5H24.75ZM24.75 20V15.5H23.25V20H24.75Z" fill="#F7F7F7"/>
<path d="M21.6665 17C21.2523 17 20.9165 17.3358 20.9165 17.75C20.9165 18.1642 21.2523 18.5 21.6665 18.5L21.6665 17ZM26.3332 18.5C26.7474 18.5 27.0832 18.1642 27.0832 17.75C27.0832 17.3358 26.7474 17 26.3332 17V18.5ZM21.6665 18.5L26.3332 18.5V17L21.6665 17L21.6665 18.5Z" fill="#F7F7F7"/>
<path d="M24 12.5L22.6722 11.2197C22.5264 11.079 22.3286 11 22.1223 11H17.7778C17.3482 11 17 11.3358 17 11.75V12.5" stroke="#F7F7F7" stroke-width="1.5" stroke-linecap="round" stroke-linejoin="round"/>
<path d="M23.1523 29.4961H22.0391V33.2695H19.8711V34.1836H22.0391V40.0195H23.1523V29.4961ZM14.2695 37.0898L14.9492 37.957C16.1621 37.3359 17.1172 36.0293 17.5859 34.5059C18.0547 35.9355 18.9863 37.1602 20.1992 37.7461L20.8672 36.8555C19.2559 36.1406 18.1367 34.2246 18.1367 32.4492V31.4648H20.4688V30.5508H14.6914V31.4648H17.0117V32.4492C17.0059 34.3359 15.875 36.3223 14.2695 37.0898ZM27.4258 31.4297V31.1484H29.6875V30.2461H24.0039V31.1484H26.3125V31.4414C26.3066 32.9004 25.3164 34.2539 23.6758 34.793L24.25 35.6836C25.5098 35.2441 26.4297 34.3359 26.8867 33.1875C27.3496 34.1836 28.2227 34.9746 29.418 35.3555L29.9453 34.4883C28.3516 33.9844 27.4199 32.7656 27.4258 31.4297ZM25.0938 38.0039C25.0938 39.252 26.4355 39.9785 28.6211 39.9727C30.7832 39.9785 32.1016 39.252 32.1016 38.0039C32.1016 36.7734 30.7832 36.0527 28.6211 36.0586C26.4355 36.0527 25.0938 36.7734 25.0938 38.0039ZM26.207 38.0039C26.2012 37.3184 27.1035 36.9316 28.6211 36.9375C30.127 36.9316 31.0176 37.3184 31.0117 38.0039C31.0176 38.707 30.127 39.0996 28.6211 39.0938C27.1035 39.0996 26.2012 38.707 26.207 38.0039ZM30.8945 35.8008H32.0078V33.0117H33.5312V32.0977H32.0078V29.4961H30.8945V35.8008Z" fill="#F7F7F7"/>
</svg>
