<svg width="32" height="32" viewBox="0 0 32 32" fill="none" xmlns="http://www.w3.org/2000/svg">
<g id="search">
<path id="Search icon" fill-rule="evenodd" clip-rule="evenodd" d="M21.667 13.6667C21.667 18.085 18.0853 21.6667 13.667 21.6667C9.24871 21.6667 5.66699 18.085 5.66699 13.6667C5.66699 9.24847 9.24871 5.66675 13.667 5.66675C18.0853 5.66675 21.667 9.24847 21.667 13.6667ZM19.9974 22.6638C18.2072 23.9256 16.0237 24.6667 13.667 24.6667C7.59186 24.6667 2.66699 19.7419 2.66699 13.6667C2.66699 7.59162 7.59186 2.66675 13.667 2.66675C19.7421 2.66675 24.667 7.59162 24.667 13.6667C24.667 16.303 23.7396 18.7226 22.1934 20.6172L29.061 27.4848C29.6468 28.0706 29.6468 29.0203 29.061 29.6061C28.4752 30.1919 27.5255 30.1919 26.9397 29.6061L19.9974 22.6638Z" fill="#555555"/>
</g>
</svg>
