<svg width="32" height="32" viewBox="0 0 32 32" fill="none" xmlns="http://www.w3.org/2000/svg">
<g id="search">
<path id="Search icon" fill-rule="evenodd" clip-rule="evenodd" d="M21.667 13.6665C21.667 18.0848 18.0853 21.6665 13.667 21.6665C9.24871 21.6665 5.66699 18.0848 5.66699 13.6665C5.66699 9.24823 9.24871 5.6665 13.667 5.6665C18.0853 5.6665 21.667 9.24823 21.667 13.6665ZM19.9974 22.6635C18.2072 23.9254 16.0237 24.6665 13.667 24.6665C7.59186 24.6665 2.66699 19.7416 2.66699 13.6665C2.66699 7.59137 7.59186 2.6665 13.667 2.6665C19.7421 2.6665 24.667 7.59137 24.667 13.6665C24.667 16.3027 23.7396 18.7223 22.1934 20.6169L29.061 27.4845C29.6468 28.0703 29.6468 29.0201 29.061 29.6058C28.4752 30.1916 27.5255 30.1916 26.9397 29.6058L19.9974 22.6635Z" fill="current"/>
</g>
</svg>
