<svg width="74" height="16" viewBox="0 0 74 16" fill="none" xmlns="http://www.w3.org/2000/svg">
<path d="M3.336 0.464V1.792H10.024V0.464H12.44V6.752H0.904V0.464H3.336ZM3.336 4.8H10.024V3.744H3.336V4.8ZM5.464 9.52H0.00800002V7.52H13.352V9.52H7.88V10.688H12.44V15.312H10.008V12.672H0.824V10.688H5.464V9.52ZM21.7034 5.984C20.5994 7.488 18.3114 8.944 15.3834 9.408V7.312C18.6474 6.576 20.4874 4.72 20.4874 1.488V0.464H22.9194V1.488C22.9194 4.704 24.7114 6.56 28.0234 7.312V9.408C25.1274 8.944 22.7914 7.488 21.7034 5.984ZM28.3114 14.464H15.1274V12.384H28.3114V14.464ZM34.4708 14.112H30.5508V0.559999H36.0068V2.592H32.8388V6.256H35.6708V8.272H32.8388V12.096H34.5828C35.3188 12.096 36.0068 12.064 36.5668 11.92V13.856C36.0068 14.064 35.2548 14.112 34.4708 14.112ZM39.7348 0.384V14.944H37.4948V8.112H36.1188V6.016H37.4948V0.384H39.7348ZM42.8068 0.303999V15.072H40.5188V0.303999H42.8068ZM53.3181 8C53.2701 10.384 52.9661 12.144 52.1021 13.184C51.4941 13.952 50.5341 14.32 49.3981 14.32C48.2781 14.32 47.3341 13.952 46.6941 13.184C45.7501 12.048 45.4781 10.064 45.4781 7.328C45.4781 4.608 45.7501 2.624 46.6941 1.488C47.3341 0.704 48.2781 0.32 49.3981 0.32C50.5341 0.32 51.4941 0.704 52.1021 1.488C52.8701 2.416 53.2061 3.92 53.2861 5.936H55.1901V0.303999H57.6221V15.072H55.1901V8H53.3181ZM47.8941 7.328C47.8941 9.648 48.0221 11.168 48.4701 11.824C48.6781 12.128 49.0301 12.288 49.3981 12.288C49.7821 12.288 50.1181 12.128 50.3421 11.824C50.7901 11.168 50.9181 9.648 50.9181 7.328C50.9181 5.024 50.7901 3.504 50.3421 2.848C50.1181 2.544 49.7821 2.368 49.3981 2.368C49.0301 2.368 48.6781 2.544 48.4701 2.848C48.0221 3.504 47.8941 5.024 47.8941 7.328ZM72.6935 2.624H68.0375C68.0535 5.44 70.0535 6.832 72.8535 7.408V9.488C70.3415 9.104 68.0375 7.984 66.8215 6.432C65.5735 7.984 63.3015 9.104 60.7895 9.488V7.408C63.5735 6.864 65.5895 5.44 65.6055 2.624H60.9655V0.559999H72.6935V2.624ZM73.4295 14.464H60.2455V12.384H73.4295V14.464Z" fill="current"/>
</svg>
