<svg width="24" height="24" viewBox="0 0 24 24" fill="none" xmlns="http://www.w3.org/2000/svg">
<g id="icn_setting">
<path id="coolicon" d="M13.8194 22H10.1794C9.70955 22 9.30299 21.673 9.20243 21.214L8.79543 19.33C8.25248 19.0921 7.73765 18.7946 7.26043 18.443L5.42343 19.028C4.97543 19.1709 4.48842 18.9823 4.25343 18.575L2.42943 15.424C2.19702 15.0165 2.27709 14.5025 2.62243 14.185L4.04743 12.885C3.98263 12.2961 3.98263 11.7019 4.04743 11.113L2.62243 9.816C2.27658 9.49837 2.19648 8.98372 2.42943 8.576L4.24943 5.423C4.48442 5.0157 4.97143 4.82714 5.41943 4.97L7.25643 5.555C7.50049 5.37416 7.75456 5.20722 8.01743 5.055C8.26977 4.91269 8.52947 4.78385 8.79543 4.669L9.20343 2.787C9.3035 2.32797 9.70962 2.00049 10.1794 2H13.8194C14.2892 2.00049 14.6954 2.32797 14.7954 2.787L15.2074 4.67C15.4882 4.79352 15.7617 4.93308 16.0264 5.088C16.2737 5.23078 16.5128 5.38736 16.7424 5.557L18.5804 4.972C19.0281 4.82967 19.5145 5.01816 19.7494 5.425L21.5694 8.578C21.8018 8.98548 21.7218 9.49951 21.3764 9.817L19.9514 11.117C20.0162 11.7059 20.0162 12.3001 19.9514 12.889L21.3764 14.189C21.7218 14.5065 21.8018 15.0205 21.5694 15.428L19.7494 18.581C19.5145 18.9878 19.0281 19.1763 18.5804 19.034L16.7424 18.449C16.5099 18.6203 16.2682 18.7789 16.0184 18.924C15.7563 19.0759 15.4858 19.2131 15.2084 19.335L14.7954 21.214C14.695 21.6726 14.2889 21.9996 13.8194 22ZM11.9954 8C9.78629 8 7.99543 9.79086 7.99543 12C7.99543 14.2091 9.78629 16 11.9954 16C14.2046 16 15.9954 14.2091 15.9954 12C15.9954 9.79086 14.2046 8 11.9954 8Z" fill="#C1C1C1"/>
</g>
</svg>
