<svg width="24" height="24" viewBox="0 0 24 24" fill="none" xmlns="http://www.w3.org/2000/svg">
<path d="M21.5484 18.5314L16.6318 13.6447C16.25 13.2651 15.7535 13.0205 15.2185 12.9484C14.6834 12.8762 14.1394 12.9806 13.6697 13.2454L13.7081 13.2084L6.63592 6.15382C6.44822 3.93305 4.04982 2.52875 2.8961 1.97849C2.72283 1.89562 2.52787 1.86856 2.3384 1.9011C2.14892 1.93363 1.97438 2.02414 1.83912 2.16L1.31703 2.68414C1.18871 2.81294 1.10148 2.97652 1.06626 3.15439C1.03105 3.33225 1.04943 3.5165 1.11908 3.68403C2.83461 7.82369 5.37137 7.41864 5.37137 7.41864L12.3891 14.4669L12.5275 14.3344C12.2244 14.8054 12.0921 15.3652 12.1526 15.9211C12.213 16.477 12.4626 16.9957 12.86 17.3914L17.7766 22.2794C18.2393 22.7393 18.8669 22.9977 19.5212 22.9977C20.1756 22.9977 20.8031 22.7393 21.2659 22.2794L21.5484 21.9985C22.0105 21.5385 22.27 20.915 22.27 20.265C22.27 19.6149 22.0105 18.9914 21.5484 18.5314Z" fill="#C1C1C1"/>
<path d="M22.6395 4.40383C22.5466 4.5575 22.4351 4.6993 22.3076 4.82608L19.783 7.33598C19.3674 7.74881 18.8039 7.9807 18.2164 7.9807C17.6289 7.9807 17.0655 7.74881 16.6499 7.33598C16.2346 6.92279 16.0014 6.3626 16.0014 5.77852C16.0014 5.19443 16.2346 4.63424 16.6499 4.22105L19.1745 1.71114C19.3058 1.5805 19.453 1.46668 19.6126 1.37233C18.9862 1.12584 18.3185 0.999428 17.6447 0.999756C16.9414 0.999673 16.2449 1.13733 15.5951 1.40486C14.9453 1.67239 14.3548 2.06456 13.8575 2.55896C13.3601 3.05337 12.9656 3.64034 12.6964 4.28635C12.4272 4.93236 12.2887 5.62475 12.2887 6.324C12.2888 6.75698 12.3419 7.18834 12.4469 7.60856L11.2266 8.81671L13.9632 11.5495C13.9632 11.5495 15.172 11.1961 16.1316 11.7145L16.3552 11.4922C16.7771 11.5958 17.2101 11.6482 17.6447 11.6482C19.0651 11.6482 20.4272 11.0873 21.4316 10.0888C22.4359 9.09031 23.0001 7.73607 23.0001 6.324C23.0003 5.66728 22.878 5.01622 22.6395 4.40383Z" fill="#C1C1C1"/>
<path d="M10.7557 14.7855L8.00108 11.989L1.78728 18.294C1.52858 18.5565 1.32565 18.868 1.19057 19.21C1.05549 19.552 0.991023 19.9175 1.001 20.2848C1.01099 20.6521 1.09522 21.0137 1.24868 21.348C1.40214 21.6822 1.62169 21.9824 1.89426 22.2305C2.4205 22.7101 3.11348 22.9679 3.82714 22.9495C4.54081 22.9311 5.2194 22.6379 5.71991 22.1318L10.9453 16.8509C10.4213 15.8293 10.7557 14.7855 10.7557 14.7855ZM3.77313 21.4949C3.50628 21.4951 3.24538 21.4165 3.02344 21.2692C2.80149 21.1219 2.62848 20.9125 2.52627 20.6674C2.42406 20.4223 2.39725 20.1526 2.44924 19.8924C2.50122 19.6322 2.62966 19.3932 2.81831 19.2055C3.00696 19.0179 3.24734 18.8901 3.50906 18.8383C3.77078 18.7865 4.04207 18.813 4.28862 18.9145C4.53517 19.016 4.74591 19.1879 4.89418 19.4085C5.04245 19.6291 5.12159 19.8884 5.12159 20.1537C5.12159 20.3299 5.08665 20.5045 5.01877 20.6673C4.95089 20.8301 4.85141 20.978 4.726 21.1026C4.60058 21.2271 4.45171 21.3259 4.28788 21.3932C4.12405 21.4605 3.94848 21.4951 3.77121 21.4949H3.77313Z" fill="#C1C1C1"/>
</svg>
